<?xml version="1.0" encoding="UTF-8" standalone="no"?>
<!DOCTYPE svg PUBLIC "-//W3C//DTD SVG 1.1//EN"
 "http://www.w3.org/Graphics/SVG/1.1/DTD/svg11.dtd">
<!-- Generated by graphviz version 2.40.1 (20161225.0304)
 -->
<!-- Title: dependencies Pages: 1 -->
<svg width="1315pt" height="284pt"
 viewBox="0.00 0.00 1315.00 284.00" xmlns="http://www.w3.org/2000/svg" xmlns:xlink="http://www.w3.org/1999/xlink">
<g id="graph0" class="graph" transform="scale(1 1) rotate(0) translate(4 280)">
<title>dependencies</title>
<polygon fill="#ffffff" stroke="transparent" points="-4,4 -4,-280 1311,-280 1311,4 -4,4"/>
<text text-anchor="start" x="632.5091" y="-42.4" font-family="sans-serif" font-weight="bold" font-size="14.00" fill="#000000">Legend</text>
<polygon fill="#ffffb3" stroke="transparent" points="419.5,-10 419.5,-30 439.5,-30 439.5,-10 419.5,-10"/>
<text text-anchor="start" x="443.129" y="-15.4" font-family="sans-serif" font-size="14.00" fill="#000000"> &#160;Declarations</text>
<polygon fill="#8dd3c7" stroke="transparent" points="532.5,-10 532.5,-30 552.5,-30 552.5,-10 532.5,-10"/>
<text text-anchor="start" x="556.2251" y="-15.4" font-family="sans-serif" font-size="14.00" fill="#000000"> &#160;Module</text>
<polygon fill="#80b1d3" stroke="transparent" points="618.5,-10 618.5,-30 638.5,-30 638.5,-10 618.5,-10"/>
<text text-anchor="start" x="642.2812" y="-15.4" font-family="sans-serif" font-size="14.00" fill="#000000"> &#160;Bootstrap</text>
<polygon fill="#fdb462" stroke="transparent" points="715.5,-10 715.5,-30 735.5,-30 735.5,-10 715.5,-10"/>
<text text-anchor="start" x="739.1732" y="-15.4" font-family="sans-serif" font-size="14.00" fill="#000000"> &#160;Providers</text>
<polygon fill="#fb8072" stroke="transparent" points="811.5,-10 811.5,-30 831.5,-30 831.5,-10 811.5,-10"/>
<text text-anchor="start" x="835.2258" y="-15.4" font-family="sans-serif" font-size="14.00" fill="#000000"> &#160;Exports</text>
<g id="clust1" class="cluster">
<title>cluster_TherapeuticModule</title>
<polygon fill="none" stroke="#000000" stroke-dasharray="1,5" points="8,-70 8,-268 1299,-268 1299,-70 8,-70"/>
</g>
<g id="clust2" class="cluster">
<title>cluster_TherapeuticModule_declarations</title>
<polygon fill="none" stroke="#000000" points="896,-78 896,-130 1291,-130 1291,-78 896,-78"/>
</g>
<g id="clust5" class="cluster">
<title>cluster_TherapeuticModule_imports</title>
<polygon fill="none" stroke="#000000" points="206,-78 206,-130 888,-130 888,-78 206,-78"/>
</g>
<g id="clust6" class="cluster">
<title>cluster_TherapeuticModule_exports</title>
<polygon fill="none" stroke="#000000" points="455,-208 455,-260 857,-260 857,-208 455,-208"/>
</g>
<g id="clust8" class="cluster">
<title>cluster_TherapeuticModule_providers</title>
<polygon fill="none" stroke="#000000" points="16,-78 16,-130 198,-130 198,-78 16,-78"/>
</g>
<!-- TherapeuticClassificationComponent -->
<g id="node1" class="node">
<title>TherapeuticClassificationComponent</title>
<polygon fill="#ffffb3" stroke="#000000" points="1282.6685,-122 1057.3315,-122 1057.3315,-86 1282.6685,-86 1282.6685,-122"/>
<text text-anchor="middle" x="1170" y="-99.8" font-family="Times,serif" font-size="14.00" fill="#000000">TherapeuticClassificationComponent</text>
</g>
<!-- TherapeuticModule -->
<g id="node3" class="node">
<title>TherapeuticModule</title>
<polygon fill="#8dd3c7" stroke="#000000" points="697.4032,-187 694.4032,-191 673.4032,-191 670.4032,-187 570.5968,-187 570.5968,-151 697.4032,-151 697.4032,-187"/>
<text text-anchor="middle" x="634" y="-164.8" font-family="Times,serif" font-size="14.00" fill="#000000">TherapeuticModule</text>
</g>
<!-- TherapeuticClassificationComponent&#45;&gt;TherapeuticModule -->
<g id="edge1" class="edge">
<title>TherapeuticClassificationComponent&#45;&gt;TherapeuticModule</title>
<path fill="none" stroke="#000000" d="M1170,-122.2921C1170,-144.2057 1170,-178 1170,-178 1170,-178 707.3264,-178 707.3264,-178"/>
<polygon fill="#000000" stroke="#000000" points="707.3264,-174.5001 697.3264,-178 707.3264,-181.5001 707.3264,-174.5001"/>
</g>
<!-- TheraListComponent -->
<g id="node2" class="node">
<title>TheraListComponent</title>
<polygon fill="#ffffb3" stroke="#000000" points="1039.7534,-122 904.2466,-122 904.2466,-86 1039.7534,-86 1039.7534,-122"/>
<text text-anchor="middle" x="972" y="-99.8" font-family="Times,serif" font-size="14.00" fill="#000000">TheraListComponent</text>
</g>
<!-- TheraListComponent&#45;&gt;TherapeuticModule -->
<g id="edge2" class="edge">
<title>TheraListComponent&#45;&gt;TherapeuticModule</title>
<path fill="none" stroke="#000000" d="M972,-122.1061C972,-141.3391 972,-169 972,-169 972,-169 707.5752,-169 707.5752,-169"/>
<polygon fill="#000000" stroke="#000000" points="707.5752,-165.5001 697.5752,-169 707.5752,-172.5001 707.5752,-165.5001"/>
</g>
<!-- TherapeuticClassificationComponent  -->
<g id="node9" class="node">
<title>TherapeuticClassificationComponent </title>
<polygon fill="#fb8072" stroke="#000000" points="849.1686,-252 620.8314,-252 620.8314,-216 849.1686,-216 849.1686,-252"/>
<text text-anchor="middle" x="735" y="-229.8" font-family="Times,serif" font-size="14.00" fill="#000000">TherapeuticClassificationComponent </text>
</g>
<!-- TherapeuticModule&#45;&gt;TherapeuticClassificationComponent  -->
<g id="edge8" class="edge">
<title>TherapeuticModule&#45;&gt;TherapeuticClassificationComponent </title>
<path fill="none" stroke="#000000" stroke-dasharray="5,2" d="M658.9336,-187.1061C658.9336,-187.1061 658.9336,-205.991 658.9336,-205.991"/>
<polygon fill="#000000" stroke="#000000" points="655.4336,-205.9909 658.9336,-215.991 662.4336,-205.991 655.4336,-205.9909"/>
</g>
<!-- TheraListComponent  -->
<g id="node10" class="node">
<title>TheraListComponent </title>
<polygon fill="#fb8072" stroke="#000000" points="602.7534,-252 463.2466,-252 463.2466,-216 602.7534,-216 602.7534,-252"/>
<text text-anchor="middle" x="533" y="-229.8" font-family="Times,serif" font-size="14.00" fill="#000000">TheraListComponent </text>
</g>
<!-- TherapeuticModule&#45;&gt;TheraListComponent  -->
<g id="edge9" class="edge">
<title>TherapeuticModule&#45;&gt;TheraListComponent </title>
<path fill="none" stroke="#000000" stroke-dasharray="5,2" d="M586.7127,-187.1061C586.7127,-187.1061 586.7127,-205.991 586.7127,-205.991"/>
<polygon fill="#000000" stroke="#000000" points="583.2127,-205.9909 586.7127,-215.991 590.2127,-205.991 583.2127,-205.9909"/>
</g>
<!-- CommonModule -->
<g id="node4" class="node">
<title>CommonModule</title>
<polygon fill="#8dd3c7" stroke="#000000" points="879.6681,-122 876.6681,-126 855.6681,-126 852.6681,-122 768.3319,-122 768.3319,-86 879.6681,-86 879.6681,-122"/>
<text text-anchor="middle" x="824" y="-99.8" font-family="Times,serif" font-size="14.00" fill="#000000">CommonModule</text>
</g>
<!-- CommonModule&#45;&gt;TherapeuticModule -->
<g id="edge3" class="edge">
<title>CommonModule&#45;&gt;TherapeuticModule</title>
<path fill="none" stroke="#000000" d="M808.7502,-122.027C808.7502,-138.3976 808.7502,-160 808.7502,-160 808.7502,-160 707.5832,-160 707.5832,-160"/>
<polygon fill="#000000" stroke="#000000" points="707.5832,-156.5001 697.5832,-160 707.5831,-163.5001 707.5832,-156.5001"/>
</g>
<!-- FormsModule -->
<g id="node5" class="node">
<title>FormsModule</title>
<polygon fill="#8dd3c7" stroke="#000000" points="750.8288,-122 747.8288,-126 726.8288,-126 723.8288,-122 655.1712,-122 655.1712,-86 750.8288,-86 750.8288,-122"/>
<text text-anchor="middle" x="703" y="-99.8" font-family="Times,serif" font-size="14.00" fill="#000000">FormsModule</text>
</g>
<!-- FormsModule&#45;&gt;TherapeuticModule -->
<g id="edge4" class="edge">
<title>FormsModule&#45;&gt;TherapeuticModule</title>
<path fill="none" stroke="#000000" d="M676.2686,-122.1061C676.2686,-122.1061 676.2686,-140.991 676.2686,-140.991"/>
<polygon fill="#000000" stroke="#000000" points="672.7687,-140.9909 676.2686,-150.991 679.7687,-140.991 672.7687,-140.9909"/>
</g>
<!-- ReactiveFormsModule -->
<g id="node6" class="node">
<title>ReactiveFormsModule</title>
<polygon fill="#8dd3c7" stroke="#000000" points="637.3047,-122 634.3047,-126 613.3047,-126 610.3047,-122 492.6953,-122 492.6953,-86 637.3047,-86 637.3047,-122"/>
<text text-anchor="middle" x="565" y="-99.8" font-family="Times,serif" font-size="14.00" fill="#000000">ReactiveFormsModule</text>
</g>
<!-- ReactiveFormsModule&#45;&gt;TherapeuticModule -->
<g id="edge5" class="edge">
<title>ReactiveFormsModule&#45;&gt;TherapeuticModule</title>
<path fill="none" stroke="#000000" d="M603.9755,-122.1061C603.9755,-122.1061 603.9755,-140.991 603.9755,-140.991"/>
<polygon fill="#000000" stroke="#000000" points="600.4755,-140.9909 603.9755,-150.991 607.4755,-140.991 600.4755,-140.9909"/>
</g>
<!-- ErrorModule -->
<g id="node7" class="node">
<title>ErrorModule</title>
<polygon fill="#8dd3c7" stroke="#000000" points="474.5842,-122 471.5842,-126 450.5842,-126 447.5842,-122 385.4158,-122 385.4158,-86 474.5842,-86 474.5842,-122"/>
<text text-anchor="middle" x="430" y="-99.8" font-family="Times,serif" font-size="14.00" fill="#000000">ErrorModule</text>
</g>
<!-- ErrorModule&#45;&gt;TherapeuticModule -->
<g id="edge6" class="edge">
<title>ErrorModule&#45;&gt;TherapeuticModule</title>
<path fill="none" stroke="#000000" d="M468.9578,-122.027C468.9578,-138.3976 468.9578,-160 468.9578,-160 468.9578,-160 560.6624,-160 560.6624,-160"/>
<polygon fill="#000000" stroke="#000000" points="560.6624,-163.5001 570.6624,-160 560.6623,-156.5001 560.6624,-163.5001"/>
</g>
<!-- CommonFeatureModule -->
<g id="node8" class="node">
<title>CommonFeatureModule</title>
<polygon fill="#8dd3c7" stroke="#000000" points="367.6456,-122 364.6456,-126 343.6456,-126 340.6456,-122 214.3544,-122 214.3544,-86 367.6456,-86 367.6456,-122"/>
<text text-anchor="middle" x="291" y="-99.8" font-family="Times,serif" font-size="14.00" fill="#000000">CommonFeatureModule</text>
</g>
<!-- CommonFeatureModule&#45;&gt;TherapeuticModule -->
<g id="edge7" class="edge">
<title>CommonFeatureModule&#45;&gt;TherapeuticModule</title>
<path fill="none" stroke="#000000" d="M291,-122.1061C291,-141.3391 291,-169 291,-169 291,-169 560.6888,-169 560.6888,-169"/>
<polygon fill="#000000" stroke="#000000" points="560.6888,-172.5001 570.6888,-169 560.6888,-165.5001 560.6888,-172.5001"/>
</g>
<!-- TheraClassService -->
<g id="node11" class="node">
<title>TheraClassService</title>
<ellipse fill="#fdb462" stroke="#000000" cx="107" cy="-104" rx="83.3596" ry="18"/>
<text text-anchor="middle" x="107" y="-99.8" font-family="Times,serif" font-size="14.00" fill="#000000">TheraClassService</text>
</g>
<!-- TheraClassService&#45;&gt;TherapeuticModule -->
<g id="edge10" class="edge">
<title>TheraClassService&#45;&gt;TherapeuticModule</title>
<path fill="none" stroke="#000000" d="M107,-122.2921C107,-144.2057 107,-178 107,-178 107,-178 560.6934,-178 560.6934,-178"/>
<polygon fill="#000000" stroke="#000000" points="560.6935,-181.5001 570.6934,-178 560.6934,-174.5001 560.6935,-181.5001"/>
</g>
</g>
</svg>
