<?xml version="1.0" encoding="UTF-8" standalone="no"?>
<!DOCTYPE svg PUBLIC "-//W3C//DTD SVG 1.1//EN"
 "http://www.w3.org/Graphics/SVG/1.1/DTD/svg11.dtd">
<!-- Generated by graphviz version 2.40.1 (20161225.0304)
 -->
<!-- Title: dependencies Pages: 1 -->
<svg width="686pt" height="284pt"
 viewBox="0.00 0.00 686.00 284.00" xmlns="http://www.w3.org/2000/svg" xmlns:xlink="http://www.w3.org/1999/xlink">
<g id="graph0" class="graph" transform="scale(1 1) rotate(0) translate(4 280)">
<title>dependencies</title>
<polygon fill="#ffffff" stroke="transparent" points="-4,4 -4,-280 682,-280 682,4 -4,4"/>
<text text-anchor="start" x="318.0091" y="-42.4" font-family="sans-serif" font-weight="bold" font-size="14.00" fill="#000000">Legend</text>
<polygon fill="#ffffb3" stroke="transparent" points="105,-10 105,-30 125,-30 125,-10 105,-10"/>
<text text-anchor="start" x="128.629" y="-15.4" font-family="sans-serif" font-size="14.00" fill="#000000"> &#160;Declarations</text>
<polygon fill="#8dd3c7" stroke="transparent" points="218,-10 218,-30 238,-30 238,-10 218,-10"/>
<text text-anchor="start" x="241.7251" y="-15.4" font-family="sans-serif" font-size="14.00" fill="#000000"> &#160;Module</text>
<polygon fill="#80b1d3" stroke="transparent" points="304,-10 304,-30 324,-30 324,-10 304,-10"/>
<text text-anchor="start" x="327.7812" y="-15.4" font-family="sans-serif" font-size="14.00" fill="#000000"> &#160;Bootstrap</text>
<polygon fill="#fdb462" stroke="transparent" points="401,-10 401,-30 421,-30 421,-10 401,-10"/>
<text text-anchor="start" x="424.6732" y="-15.4" font-family="sans-serif" font-size="14.00" fill="#000000"> &#160;Providers</text>
<polygon fill="#fb8072" stroke="transparent" points="497,-10 497,-30 517,-30 517,-10 497,-10"/>
<text text-anchor="start" x="520.7258" y="-15.4" font-family="sans-serif" font-size="14.00" fill="#000000"> &#160;Exports</text>
<g id="clust1" class="cluster">
<title>cluster_ErrorModule</title>
<polygon fill="none" stroke="#000000" stroke-dasharray="1,5" points="8,-70 8,-268 670,-268 670,-70 8,-70"/>
</g>
<g id="clust2" class="cluster">
<title>cluster_ErrorModule_declarations</title>
<polygon fill="none" stroke="#000000" points="284,-78 284,-130 662,-130 662,-78 284,-78"/>
</g>
<g id="clust5" class="cluster">
<title>cluster_ErrorModule_imports</title>
<polygon fill="none" stroke="#000000" points="16,-78 16,-130 276,-130 276,-78 16,-78"/>
</g>
<g id="clust6" class="cluster">
<title>cluster_ErrorModule_exports</title>
<polygon fill="none" stroke="#000000" points="106,-208 106,-260 490,-260 490,-208 106,-208"/>
</g>
<!-- ErrorSummaryComponent -->
<g id="node1" class="node">
<title>ErrorSummaryComponent</title>
<polygon fill="#ffffb3" stroke="#000000" points="653.8061,-122 488.1939,-122 488.1939,-86 653.8061,-86 653.8061,-122"/>
<text text-anchor="middle" x="571" y="-99.8" font-family="Times,serif" font-size="14.00" fill="#000000">ErrorSummaryComponent</text>
</g>
<!-- ErrorModule -->
<g id="node3" class="node">
<title>ErrorModule</title>
<polygon fill="#8dd3c7" stroke="#000000" points="338.5842,-187 335.5842,-191 314.5842,-191 311.5842,-187 249.4158,-187 249.4158,-151 338.5842,-151 338.5842,-187"/>
<text text-anchor="middle" x="294" y="-164.8" font-family="Times,serif" font-size="14.00" fill="#000000">ErrorModule</text>
</g>
<!-- ErrorSummaryComponent&#45;&gt;ErrorModule -->
<g id="edge1" class="edge">
<title>ErrorSummaryComponent&#45;&gt;ErrorModule</title>
<path fill="none" stroke="#000000" d="M571,-122.1061C571,-141.3391 571,-169 571,-169 571,-169 348.8127,-169 348.8127,-169"/>
<polygon fill="#000000" stroke="#000000" points="348.8127,-165.5001 338.8127,-169 348.8127,-172.5001 348.8127,-165.5001"/>
</g>
<!-- ControlMessagesComponent -->
<g id="node2" class="node">
<title>ControlMessagesComponent</title>
<polygon fill="#ffffb3" stroke="#000000" points="470.0336,-122 291.9664,-122 291.9664,-86 470.0336,-86 470.0336,-122"/>
<text text-anchor="middle" x="381" y="-99.8" font-family="Times,serif" font-size="14.00" fill="#000000">ControlMessagesComponent</text>
</g>
<!-- ControlMessagesComponent&#45;&gt;ErrorModule -->
<g id="edge2" class="edge">
<title>ControlMessagesComponent&#45;&gt;ErrorModule</title>
<path fill="none" stroke="#000000" d="M315.1378,-122.1061C315.1378,-122.1061 315.1378,-140.991 315.1378,-140.991"/>
<polygon fill="#000000" stroke="#000000" points="311.6379,-140.9909 315.1378,-150.991 318.6379,-140.991 311.6379,-140.9909"/>
</g>
<!-- ErrorSummaryComponent  -->
<g id="node6" class="node">
<title>ErrorSummaryComponent </title>
<polygon fill="#fb8072" stroke="#000000" points="482.3059,-252 313.6941,-252 313.6941,-216 482.3059,-216 482.3059,-252"/>
<text text-anchor="middle" x="398" y="-229.8" font-family="Times,serif" font-size="14.00" fill="#000000">ErrorSummaryComponent </text>
</g>
<!-- ErrorModule&#45;&gt;ErrorSummaryComponent  -->
<g id="edge5" class="edge">
<title>ErrorModule&#45;&gt;ErrorSummaryComponent </title>
<path fill="none" stroke="#000000" stroke-dasharray="5,2" d="M326.0696,-187.1061C326.0696,-187.1061 326.0696,-205.991 326.0696,-205.991"/>
<polygon fill="#000000" stroke="#000000" points="322.5697,-205.9909 326.0696,-215.991 329.5697,-205.991 322.5697,-205.9909"/>
</g>
<!-- ControlMessagesComponent  -->
<g id="node7" class="node">
<title>ControlMessagesComponent </title>
<polygon fill="#fb8072" stroke="#000000" points="296.033,-252 113.967,-252 113.967,-216 296.033,-216 296.033,-252"/>
<text text-anchor="middle" x="205" y="-229.8" font-family="Times,serif" font-size="14.00" fill="#000000">ControlMessagesComponent </text>
</g>
<!-- ErrorModule&#45;&gt;ControlMessagesComponent  -->
<g id="edge6" class="edge">
<title>ErrorModule&#45;&gt;ControlMessagesComponent </title>
<path fill="none" stroke="#000000" stroke-dasharray="5,2" d="M272.7372,-187.1061C272.7372,-187.1061 272.7372,-205.991 272.7372,-205.991"/>
<polygon fill="#000000" stroke="#000000" points="269.2373,-205.9909 272.7372,-215.991 276.2373,-205.991 269.2373,-205.9909"/>
</g>
<!-- CommonModule -->
<g id="node4" class="node">
<title>CommonModule</title>
<polygon fill="#8dd3c7" stroke="#000000" points="267.6681,-122 264.6681,-126 243.6681,-126 240.6681,-122 156.3319,-122 156.3319,-86 267.6681,-86 267.6681,-122"/>
<text text-anchor="middle" x="212" y="-99.8" font-family="Times,serif" font-size="14.00" fill="#000000">CommonModule</text>
</g>
<!-- CommonModule&#45;&gt;ErrorModule -->
<g id="edge3" class="edge">
<title>CommonModule&#45;&gt;ErrorModule</title>
<path fill="none" stroke="#000000" d="M258.6459,-122.1061C258.6459,-122.1061 258.6459,-140.991 258.6459,-140.991"/>
<polygon fill="#000000" stroke="#000000" points="255.1459,-140.9909 258.6459,-150.991 262.1459,-140.991 255.1459,-140.9909"/>
</g>
<!-- MainPipeModule -->
<g id="node5" class="node">
<title>MainPipeModule</title>
<polygon fill="#8dd3c7" stroke="#000000" points="137.9874,-122 134.9874,-126 113.9874,-126 110.9874,-122 24.0126,-122 24.0126,-86 137.9874,-86 137.9874,-122"/>
<text text-anchor="middle" x="81" y="-99.8" font-family="Times,serif" font-size="14.00" fill="#000000">MainPipeModule</text>
</g>
<!-- MainPipeModule&#45;&gt;ErrorModule -->
<g id="edge4" class="edge">
<title>MainPipeModule&#45;&gt;ErrorModule</title>
<path fill="none" stroke="#000000" d="M125.9886,-122.1061C125.9886,-141.3391 125.9886,-169 125.9886,-169 125.9886,-169 239.4171,-169 239.4171,-169"/>
<polygon fill="#000000" stroke="#000000" points="239.4172,-172.5001 249.4171,-169 239.4171,-165.5001 239.4172,-172.5001"/>
</g>
</g>
</svg>
