<?xml version="1.0" encoding="UTF-8" standalone="no"?>
<!DOCTYPE svg PUBLIC "-//W3C//DTD SVG 1.1//EN"
 "http://www.w3.org/Graphics/SVG/1.1/DTD/svg11.dtd">
<!-- Generated by graphviz version 2.40.1 (20161225.0304)
 -->
<!-- Title: dependencies Pages: 1 -->
<svg width="917pt" height="284pt"
 viewBox="0.00 0.00 917.00 284.00" xmlns="http://www.w3.org/2000/svg" xmlns:xlink="http://www.w3.org/1999/xlink">
<g id="graph0" class="graph" transform="scale(1 1) rotate(0) translate(4 280)">
<title>dependencies</title>
<polygon fill="#ffffff" stroke="transparent" points="-4,4 -4,-280 913,-280 913,4 -4,4"/>
<text text-anchor="start" x="433.5091" y="-42.4" font-family="sans-serif" font-weight="bold" font-size="14.00" fill="#000000">Legend</text>
<polygon fill="#ffffb3" stroke="transparent" points="220.5,-10 220.5,-30 240.5,-30 240.5,-10 220.5,-10"/>
<text text-anchor="start" x="244.129" y="-15.4" font-family="sans-serif" font-size="14.00" fill="#000000"> &#160;Declarations</text>
<polygon fill="#8dd3c7" stroke="transparent" points="333.5,-10 333.5,-30 353.5,-30 353.5,-10 333.5,-10"/>
<text text-anchor="start" x="357.2251" y="-15.4" font-family="sans-serif" font-size="14.00" fill="#000000"> &#160;Module</text>
<polygon fill="#80b1d3" stroke="transparent" points="419.5,-10 419.5,-30 439.5,-30 439.5,-10 419.5,-10"/>
<text text-anchor="start" x="443.2812" y="-15.4" font-family="sans-serif" font-size="14.00" fill="#000000"> &#160;Bootstrap</text>
<polygon fill="#fdb462" stroke="transparent" points="516.5,-10 516.5,-30 536.5,-30 536.5,-10 516.5,-10"/>
<text text-anchor="start" x="540.1732" y="-15.4" font-family="sans-serif" font-size="14.00" fill="#000000"> &#160;Providers</text>
<polygon fill="#fb8072" stroke="transparent" points="612.5,-10 612.5,-30 632.5,-30 632.5,-10 612.5,-10"/>
<text text-anchor="start" x="636.2258" y="-15.4" font-family="sans-serif" font-size="14.00" fill="#000000"> &#160;Exports</text>
<g id="clust1" class="cluster">
<title>cluster_FileIoModule</title>
<polygon fill="none" stroke="#000000" stroke-dasharray="1,5" points="8,-70 8,-268 901,-268 901,-70 8,-70"/>
</g>
<g id="clust2" class="cluster">
<title>cluster_FileIoModule_declarations</title>
<polygon fill="none" stroke="#000000" points="739,-78 739,-130 893,-130 893,-78 739,-78"/>
</g>
<g id="clust4" class="cluster">
<title>cluster_FileIoModule_imports</title>
<polygon fill="none" stroke="#000000" points="603,-78 603,-130 731,-130 731,-78 603,-78"/>
</g>
<g id="clust5" class="cluster">
<title>cluster_FileIoModule_exports</title>
<polygon fill="none" stroke="#000000" points="437,-208 437,-260 595,-260 595,-208 437,-208"/>
</g>
<g id="clust7" class="cluster">
<title>cluster_FileIoModule_providers</title>
<polygon fill="none" stroke="#000000" points="16,-78 16,-130 595,-130 595,-78 16,-78"/>
</g>
<!-- FilereaderComponent -->
<g id="node1" class="node">
<title>FilereaderComponent</title>
<polygon fill="#ffffb3" stroke="#000000" points="885.0758,-122 746.9242,-122 746.9242,-86 885.0758,-86 885.0758,-122"/>
<text text-anchor="middle" x="816" y="-99.8" font-family="Times,serif" font-size="14.00" fill="#000000">FilereaderComponent</text>
</g>
<!-- FileIoModule -->
<g id="node2" class="node">
<title>FileIoModule</title>
<polygon fill="#8dd3c7" stroke="#000000" points="562.4888,-187 559.4888,-191 538.4888,-191 535.4888,-187 469.5112,-187 469.5112,-151 562.4888,-151 562.4888,-187"/>
<text text-anchor="middle" x="516" y="-164.8" font-family="Times,serif" font-size="14.00" fill="#000000">FileIoModule</text>
</g>
<!-- FilereaderComponent&#45;&gt;FileIoModule -->
<g id="edge1" class="edge">
<title>FilereaderComponent&#45;&gt;FileIoModule</title>
<path fill="none" stroke="#000000" d="M816,-122.2843C816,-143.3211 816,-175 816,-175 816,-175 572.5458,-175 572.5458,-175"/>
<polygon fill="#000000" stroke="#000000" points="572.5459,-171.5001 562.5458,-175 572.5458,-178.5001 572.5459,-171.5001"/>
</g>
<!-- FilereaderComponent  -->
<g id="node4" class="node">
<title>FilereaderComponent </title>
<polygon fill="#fb8072" stroke="#000000" points="586.5764,-252 445.4236,-252 445.4236,-216 586.5764,-216 586.5764,-252"/>
<text text-anchor="middle" x="516" y="-229.8" font-family="Times,serif" font-size="14.00" fill="#000000">FilereaderComponent </text>
</g>
<!-- FileIoModule&#45;&gt;FilereaderComponent  -->
<g id="edge3" class="edge">
<title>FileIoModule&#45;&gt;FilereaderComponent </title>
<path fill="none" stroke="#000000" stroke-dasharray="5,2" d="M516,-187.1061C516,-187.1061 516,-205.991 516,-205.991"/>
<polygon fill="#000000" stroke="#000000" points="512.5001,-205.9909 516,-215.991 519.5001,-205.991 512.5001,-205.9909"/>
</g>
<!-- CommonModule -->
<g id="node3" class="node">
<title>CommonModule</title>
<polygon fill="#8dd3c7" stroke="#000000" points="722.6681,-122 719.6681,-126 698.6681,-126 695.6681,-122 611.3319,-122 611.3319,-86 722.6681,-86 722.6681,-122"/>
<text text-anchor="middle" x="667" y="-99.8" font-family="Times,serif" font-size="14.00" fill="#000000">CommonModule</text>
</g>
<!-- CommonModule&#45;&gt;FileIoModule -->
<g id="edge2" class="edge">
<title>CommonModule&#45;&gt;FileIoModule</title>
<path fill="none" stroke="#000000" d="M667,-122.0225C667,-139.3734 667,-163 667,-163 667,-163 572.5371,-163 572.5371,-163"/>
<polygon fill="#000000" stroke="#000000" points="572.5371,-159.5001 562.5371,-163 572.5371,-166.5001 572.5371,-159.5001"/>
</g>
<!-- ConvertResults -->
<g id="node5" class="node">
<title>ConvertResults</title>
<ellipse fill="#fdb462" stroke="#000000" cx="516" cy="-104" rx="70.6626" ry="18"/>
<text text-anchor="middle" x="516" y="-99.8" font-family="Times,serif" font-size="14.00" fill="#000000">ConvertResults</text>
</g>
<!-- ConvertResults&#45;&gt;FileIoModule -->
<g id="edge4" class="edge">
<title>ConvertResults&#45;&gt;FileIoModule</title>
<path fill="none" stroke="#000000" d="M516,-122.1061C516,-122.1061 516,-140.991 516,-140.991"/>
<polygon fill="#000000" stroke="#000000" points="512.5001,-140.9909 516,-150.991 519.5001,-140.991 512.5001,-140.9909"/>
</g>
<!-- FileConversionService -->
<g id="node6" class="node">
<title>FileConversionService</title>
<ellipse fill="#fdb462" stroke="#000000" cx="328" cy="-104" rx="99.5752" ry="18"/>
<text text-anchor="middle" x="328" y="-99.8" font-family="Times,serif" font-size="14.00" fill="#000000">FileConversionService</text>
</g>
<!-- FileConversionService&#45;&gt;FileIoModule -->
<g id="edge5" class="edge">
<title>FileConversionService&#45;&gt;FileIoModule</title>
<path fill="none" stroke="#000000" d="M328,-122.0225C328,-139.3734 328,-163 328,-163 328,-163 459.0446,-163 459.0446,-163"/>
<polygon fill="#000000" stroke="#000000" points="459.0447,-166.5001 469.0446,-163 459.0446,-159.5001 459.0447,-166.5001"/>
</g>
<!-- FileIoGlobalsService -->
<g id="node7" class="node">
<title>FileIoGlobalsService</title>
<ellipse fill="#fdb462" stroke="#000000" cx="117" cy="-104" rx="93.191" ry="18"/>
<text text-anchor="middle" x="117" y="-99.8" font-family="Times,serif" font-size="14.00" fill="#000000">FileIoGlobalsService</text>
</g>
<!-- FileIoGlobalsService&#45;&gt;FileIoModule -->
<g id="edge6" class="edge">
<title>FileIoGlobalsService&#45;&gt;FileIoModule</title>
<path fill="none" stroke="#000000" d="M117,-122.2843C117,-143.3211 117,-175 117,-175 117,-175 459.4487,-175 459.4487,-175"/>
<polygon fill="#000000" stroke="#000000" points="459.4488,-178.5001 469.4487,-175 459.4487,-171.5001 459.4488,-178.5001"/>
</g>
</g>
</svg>
