<?xml version="1.0" encoding="UTF-8" standalone="no"?>
<!DOCTYPE svg PUBLIC "-//W3C//DTD SVG 1.1//EN"
 "http://www.w3.org/Graphics/SVG/1.1/DTD/svg11.dtd">
<!-- Generated by graphviz version 2.40.1 (20161225.0304)
 -->
<!-- Title: dependencies Pages: 1 -->
<svg width="1904pt" height="284pt"
 viewBox="0.00 0.00 1904.00 284.00" xmlns="http://www.w3.org/2000/svg" xmlns:xlink="http://www.w3.org/1999/xlink">
<g id="graph0" class="graph" transform="scale(1 1) rotate(0) translate(4 280)">
<title>dependencies</title>
<polygon fill="#ffffff" stroke="transparent" points="-4,4 -4,-280 1900,-280 1900,4 -4,4"/>
<text text-anchor="start" x="927.0091" y="-42.4" font-family="sans-serif" font-weight="bold" font-size="14.00" fill="#000000">Legend</text>
<polygon fill="#ffffb3" stroke="transparent" points="714,-10 714,-30 734,-30 734,-10 714,-10"/>
<text text-anchor="start" x="737.629" y="-15.4" font-family="sans-serif" font-size="14.00" fill="#000000"> &#160;Declarations</text>
<polygon fill="#8dd3c7" stroke="transparent" points="827,-10 827,-30 847,-30 847,-10 827,-10"/>
<text text-anchor="start" x="850.7251" y="-15.4" font-family="sans-serif" font-size="14.00" fill="#000000"> &#160;Module</text>
<polygon fill="#80b1d3" stroke="transparent" points="913,-10 913,-30 933,-30 933,-10 913,-10"/>
<text text-anchor="start" x="936.7812" y="-15.4" font-family="sans-serif" font-size="14.00" fill="#000000"> &#160;Bootstrap</text>
<polygon fill="#fdb462" stroke="transparent" points="1010,-10 1010,-30 1030,-30 1030,-10 1010,-10"/>
<text text-anchor="start" x="1033.6732" y="-15.4" font-family="sans-serif" font-size="14.00" fill="#000000"> &#160;Providers</text>
<polygon fill="#fb8072" stroke="transparent" points="1106,-10 1106,-30 1126,-30 1126,-10 1106,-10"/>
<text text-anchor="start" x="1129.7258" y="-15.4" font-family="sans-serif" font-size="14.00" fill="#000000"> &#160;Exports</text>
<g id="clust1" class="cluster">
<title>cluster_AddressModule</title>
<polygon fill="none" stroke="#000000" stroke-dasharray="1,5" points="8,-70 8,-195 152,-195 152,-70 8,-70"/>
</g>
<g id="clust3" class="cluster">
<title>cluster_AddressModule_imports</title>
<polygon fill="none" stroke="#000000" points="16,-78 16,-130 144,-130 144,-78 16,-78"/>
</g>
<g id="clust7" class="cluster">
<title>cluster_AppModule</title>
<polygon fill="none" stroke="#000000" stroke-dasharray="1,5" points="268,-70 268,-268 1888,-268 1888,-70 268,-70"/>
</g>
<g id="clust8" class="cluster">
<title>cluster_AppModule_declarations</title>
<polygon fill="none" stroke="#000000" points="868,-78 868,-130 1880,-130 1880,-78 868,-78"/>
</g>
<g id="clust15" class="cluster">
<title>cluster_AppModule_imports</title>
<polygon fill="none" stroke="#000000" points="462,-78 462,-130 860,-130 860,-78 462,-78"/>
</g>
<g id="clust17" class="cluster">
<title>cluster_AppModule_bootstrap</title>
<polygon fill="none" stroke="#000000" points="979,-208 979,-260 1103,-260 1103,-208 979,-208"/>
</g>
<g id="clust18" class="cluster">
<title>cluster_AppModule_providers</title>
<polygon fill="none" stroke="#000000" points="276,-78 276,-130 454,-130 454,-78 276,-78"/>
</g>
<g id="clust19" class="cluster">
<title>cluster_TestModule</title>
<polygon fill="none" stroke="#000000" stroke-dasharray="1,5" points="160,-143 160,-195 260,-195 260,-143 160,-143"/>
</g>
<!-- CommonModule -->
<g id="node1" class="node">
<title>CommonModule</title>
<polygon fill="#8dd3c7" stroke="#000000" points="135.6681,-122 132.6681,-126 111.6681,-126 108.6681,-122 24.3319,-122 24.3319,-86 135.6681,-86 135.6681,-122"/>
<text text-anchor="middle" x="80" y="-99.8" font-family="Times,serif" font-size="14.00" fill="#000000">CommonModule</text>
</g>
<!-- AddressModule -->
<g id="node2" class="node">
<title>AddressModule</title>
<polygon fill="#8dd3c7" stroke="#000000" points="132.9216,-187 129.9216,-191 108.9216,-191 105.9216,-187 27.0784,-187 27.0784,-151 132.9216,-151 132.9216,-187"/>
<text text-anchor="middle" x="80" y="-164.8" font-family="Times,serif" font-size="14.00" fill="#000000">AddressModule</text>
</g>
<!-- CommonModule&#45;&gt;AddressModule -->
<g id="edge1" class="edge">
<title>CommonModule&#45;&gt;AddressModule</title>
<path fill="none" stroke="#000000" d="M80,-122.1061C80,-122.1061 80,-140.991 80,-140.991"/>
<polygon fill="#000000" stroke="#000000" points="76.5001,-140.9909 80,-150.991 83.5001,-140.991 76.5001,-140.9909"/>
</g>
<!-- TestModule -->
<g id="node15" class="node">
<title>TestModule</title>
<polygon fill="#8dd3c7" stroke="#000000" points="251.6529,-187 248.6529,-191 227.6529,-191 224.6529,-187 168.3471,-187 168.3471,-151 251.6529,-151 251.6529,-187"/>
<text text-anchor="middle" x="210" y="-164.8" font-family="Times,serif" font-size="14.00" fill="#000000">TestModule</text>
</g>
<!-- CommonModule&#45;&gt;TestModule -->
<g id="edge13" class="edge">
<title>CommonModule&#45;&gt;TestModule</title>
<path fill="none" stroke="#000000" d="M135.8862,-104C171.1206,-104 210,-104 210,-104 210,-104 210,-140.8939 210,-140.8939"/>
<polygon fill="#000000" stroke="#000000" points="206.5001,-140.8938 210,-150.8939 213.5001,-140.8939 206.5001,-140.8938"/>
</g>
<!-- AppComponent -->
<g id="node3" class="node">
<title>AppComponent</title>
<polygon fill="#ffffb3" stroke="#000000" points="1871.9399,-122 1766.0601,-122 1766.0601,-86 1871.9399,-86 1871.9399,-122"/>
<text text-anchor="middle" x="1819" y="-99.8" font-family="Times,serif" font-size="14.00" fill="#000000">AppComponent</text>
</g>
<!-- AppModule -->
<g id="node9" class="node">
<title>AppModule</title>
<polygon fill="#8dd3c7" stroke="#000000" points="1082.6571,-187 1079.6571,-191 1058.6571,-191 1055.6571,-187 999.3429,-187 999.3429,-151 1082.6571,-151 1082.6571,-187"/>
<text text-anchor="middle" x="1041" y="-164.8" font-family="Times,serif" font-size="14.00" fill="#000000">AppModule</text>
</g>
<!-- AppComponent&#45;&gt;AppModule -->
<g id="edge2" class="edge">
<title>AppComponent&#45;&gt;AppModule</title>
<path fill="none" stroke="#000000" d="M1819,-122.0109C1819,-144.4852 1819,-180 1819,-180 1819,-180 1092.8287,-180 1092.8287,-180"/>
<polygon fill="#000000" stroke="#000000" points="1092.8287,-176.5001 1082.8287,-180 1092.8286,-183.5001 1092.8287,-176.5001"/>
</g>
<!-- ExpanderComponent -->
<g id="node4" class="node">
<title>ExpanderComponent</title>
<polygon fill="#ffffb3" stroke="#000000" points="1748.4748,-122 1613.5252,-122 1613.5252,-86 1748.4748,-86 1748.4748,-122"/>
<text text-anchor="middle" x="1681" y="-99.8" font-family="Times,serif" font-size="14.00" fill="#000000">ExpanderComponent</text>
</g>
<!-- ExpanderComponent&#45;&gt;AppModule -->
<g id="edge3" class="edge">
<title>ExpanderComponent&#45;&gt;AppModule</title>
<path fill="none" stroke="#000000" d="M1681,-122.1289C1681,-142.5724 1681,-173 1681,-173 1681,-173 1092.9922,-173 1092.9922,-173"/>
<polygon fill="#000000" stroke="#000000" points="1092.9922,-169.5001 1082.9922,-173 1092.9922,-176.5001 1092.9922,-169.5001"/>
</g>
<!-- TestComponentComponent -->
<g id="node5" class="node">
<title>TestComponentComponent</title>
<polygon fill="#ffffb3" stroke="#000000" points="1595.2674,-122 1424.7326,-122 1424.7326,-86 1595.2674,-86 1595.2674,-122"/>
<text text-anchor="middle" x="1510" y="-99.8" font-family="Times,serif" font-size="14.00" fill="#000000">TestComponentComponent</text>
</g>
<!-- TestComponentComponent&#45;&gt;AppModule -->
<g id="edge4" class="edge">
<title>TestComponentComponent&#45;&gt;AppModule</title>
<path fill="none" stroke="#000000" d="M1510,-122.2667C1510,-140.5552 1510,-166 1510,-166 1510,-166 1093.0334,-166 1093.0334,-166"/>
<polygon fill="#000000" stroke="#000000" points="1093.0334,-162.5001 1083.0334,-166 1093.0333,-169.5001 1093.0334,-162.5001"/>
</g>
<!-- AddressDetailsComponent -->
<g id="node6" class="node">
<title>AddressDetailsComponent</title>
<polygon fill="#ffffb3" stroke="#000000" points="1406.3557,-122 1239.6443,-122 1239.6443,-86 1406.3557,-86 1406.3557,-122"/>
<text text-anchor="middle" x="1323" y="-99.8" font-family="Times,serif" font-size="14.00" fill="#000000">AddressDetailsComponent</text>
</g>
<!-- AddressDetailsComponent&#45;&gt;AppModule -->
<g id="edge5" class="edge">
<title>AddressDetailsComponent&#45;&gt;AppModule</title>
<path fill="none" stroke="#000000" d="M1323,-122.0091C1323,-138.0494 1323,-159 1323,-159 1323,-159 1092.9137,-159 1092.9137,-159"/>
<polygon fill="#000000" stroke="#000000" points="1092.9138,-155.5001 1082.9137,-159 1092.9137,-162.5001 1092.9138,-155.5001"/>
</g>
<!-- ControlMessagesComponent -->
<g id="node7" class="node">
<title>ControlMessagesComponent</title>
<polygon fill="#ffffb3" stroke="#000000" points="1221.0336,-122 1042.9664,-122 1042.9664,-86 1221.0336,-86 1221.0336,-122"/>
<text text-anchor="middle" x="1132" y="-99.8" font-family="Times,serif" font-size="14.00" fill="#000000">ControlMessagesComponent</text>
</g>
<!-- ControlMessagesComponent&#45;&gt;AppModule -->
<g id="edge6" class="edge">
<title>ControlMessagesComponent&#45;&gt;AppModule</title>
<path fill="none" stroke="#000000" d="M1062.7809,-122.1061C1062.7809,-122.1061 1062.7809,-140.991 1062.7809,-140.991"/>
<polygon fill="#000000" stroke="#000000" points="1059.2809,-140.9909 1062.7809,-150.991 1066.2809,-140.991 1059.2809,-140.9909"/>
</g>
<!-- AddressListComponent -->
<g id="node8" class="node">
<title>AddressListComponent</title>
<polygon fill="#ffffb3" stroke="#000000" points="1024.4818,-122 875.5182,-122 875.5182,-86 1024.4818,-86 1024.4818,-122"/>
<text text-anchor="middle" x="950" y="-99.8" font-family="Times,serif" font-size="14.00" fill="#000000">AddressListComponent</text>
</g>
<!-- AddressListComponent&#45;&gt;AppModule -->
<g id="edge7" class="edge">
<title>AddressListComponent&#45;&gt;AppModule</title>
<path fill="none" stroke="#000000" d="M1011.8314,-122.1061C1011.8314,-122.1061 1011.8314,-140.991 1011.8314,-140.991"/>
<polygon fill="#000000" stroke="#000000" points="1008.3314,-140.9909 1011.8314,-150.991 1015.3314,-140.991 1008.3314,-140.9909"/>
</g>
<!-- AppComponent  -->
<g id="node13" class="node">
<title>AppComponent </title>
<polygon fill="#80b1d3" stroke="#000000" points="1095.439,-252 986.561,-252 986.561,-216 1095.439,-216 1095.439,-252"/>
<text text-anchor="middle" x="1041" y="-229.8" font-family="Times,serif" font-size="14.00" fill="#000000">AppComponent </text>
</g>
<!-- AppModule&#45;&gt;AppComponent  -->
<g id="edge11" class="edge">
<title>AppModule&#45;&gt;AppComponent </title>
<path fill="none" stroke="#000000" stroke-dasharray="1,5" d="M1041,-187.1061C1041,-187.1061 1041,-205.991 1041,-205.991"/>
<polygon fill="#000000" stroke="#000000" points="1037.5001,-205.9909 1041,-215.991 1044.5001,-205.991 1037.5001,-205.9909"/>
</g>
<!-- BrowserModule -->
<g id="node10" class="node">
<title>BrowserModule</title>
<polygon fill="#8dd3c7" stroke="#000000" points="852.4734,-122 849.4734,-126 828.4734,-126 825.4734,-122 745.5266,-122 745.5266,-86 852.4734,-86 852.4734,-122"/>
<text text-anchor="middle" x="799" y="-99.8" font-family="Times,serif" font-size="14.00" fill="#000000">BrowserModule</text>
</g>
<!-- BrowserModule&#45;&gt;AppModule -->
<g id="edge8" class="edge">
<title>BrowserModule&#45;&gt;AppModule</title>
<path fill="none" stroke="#000000" d="M799,-122.0091C799,-138.0494 799,-159 799,-159 799,-159 989.1231,-159 989.1231,-159"/>
<polygon fill="#000000" stroke="#000000" points="989.1231,-162.5001 999.1231,-159 989.1231,-155.5001 989.1231,-162.5001"/>
</g>
<!-- FormsModule -->
<g id="node11" class="node">
<title>FormsModule</title>
<polygon fill="#8dd3c7" stroke="#000000" points="727.8288,-122 724.8288,-126 703.8288,-126 700.8288,-122 632.1712,-122 632.1712,-86 727.8288,-86 727.8288,-122"/>
<text text-anchor="middle" x="680" y="-99.8" font-family="Times,serif" font-size="14.00" fill="#000000">FormsModule</text>
</g>
<!-- FormsModule&#45;&gt;AppModule -->
<g id="edge9" class="edge">
<title>FormsModule&#45;&gt;AppModule</title>
<path fill="none" stroke="#000000" d="M680,-122.2667C680,-140.5552 680,-166 680,-166 680,-166 989.236,-166 989.236,-166"/>
<polygon fill="#000000" stroke="#000000" points="989.2361,-169.5001 999.236,-166 989.236,-162.5001 989.2361,-169.5001"/>
</g>
<!-- ReactiveFormsModule -->
<g id="node12" class="node">
<title>ReactiveFormsModule</title>
<polygon fill="#8dd3c7" stroke="#000000" points="614.3047,-122 611.3047,-126 590.3047,-126 587.3047,-122 469.6953,-122 469.6953,-86 614.3047,-86 614.3047,-122"/>
<text text-anchor="middle" x="542" y="-99.8" font-family="Times,serif" font-size="14.00" fill="#000000">ReactiveFormsModule</text>
</g>
<!-- ReactiveFormsModule&#45;&gt;AppModule -->
<g id="edge10" class="edge">
<title>ReactiveFormsModule&#45;&gt;AppModule</title>
<path fill="none" stroke="#000000" d="M542,-122.1289C542,-142.5724 542,-173 542,-173 542,-173 989.3138,-173 989.3138,-173"/>
<polygon fill="#000000" stroke="#000000" points="989.3139,-176.5001 999.3138,-173 989.3138,-169.5001 989.3139,-176.5001"/>
</g>
<!-- ValidationService -->
<g id="node14" class="node">
<title>ValidationService</title>
<ellipse fill="#fdb462" stroke="#000000" cx="365" cy="-104" rx="80.5142" ry="18"/>
<text text-anchor="middle" x="365" y="-99.8" font-family="Times,serif" font-size="14.00" fill="#000000">ValidationService</text>
</g>
<!-- ValidationService&#45;&gt;AppModule -->
<g id="edge12" class="edge">
<title>ValidationService&#45;&gt;AppModule</title>
<path fill="none" stroke="#000000" d="M365,-122.0109C365,-144.4852 365,-180 365,-180 365,-180 989.2233,-180 989.2233,-180"/>
<polygon fill="#000000" stroke="#000000" points="989.2234,-183.5001 999.2233,-180 989.2233,-176.5001 989.2234,-183.5001"/>
</g>
</g>
</svg>
