<?xml version="1.0" encoding="UTF-8" standalone="no"?>
<!DOCTYPE svg PUBLIC "-//W3C//DTD SVG 1.1//EN"
 "http://www.w3.org/Graphics/SVG/1.1/DTD/svg11.dtd">
<!-- Generated by graphviz version 2.40.1 (20161225.0304)
 -->
<!-- Title: dependencies Pages: 1 -->
<svg width="613pt" height="284pt"
 viewBox="0.00 0.00 613.00 284.00" xmlns="http://www.w3.org/2000/svg" xmlns:xlink="http://www.w3.org/1999/xlink">
<g id="graph0" class="graph" transform="scale(1 1) rotate(0) translate(4 280)">
<title>dependencies</title>
<polygon fill="#ffffff" stroke="transparent" points="-4,4 -4,-280 609,-280 609,4 -4,4"/>
<text text-anchor="start" x="281.5091" y="-42.4" font-family="sans-serif" font-weight="bold" font-size="14.00" fill="#000000">Legend</text>
<polygon fill="#ffffb3" stroke="transparent" points="68.5,-10 68.5,-30 88.5,-30 88.5,-10 68.5,-10"/>
<text text-anchor="start" x="92.129" y="-15.4" font-family="sans-serif" font-size="14.00" fill="#000000"> &#160;Declarations</text>
<polygon fill="#8dd3c7" stroke="transparent" points="181.5,-10 181.5,-30 201.5,-30 201.5,-10 181.5,-10"/>
<text text-anchor="start" x="205.2251" y="-15.4" font-family="sans-serif" font-size="14.00" fill="#000000"> &#160;Module</text>
<polygon fill="#80b1d3" stroke="transparent" points="267.5,-10 267.5,-30 287.5,-30 287.5,-10 267.5,-10"/>
<text text-anchor="start" x="291.2812" y="-15.4" font-family="sans-serif" font-size="14.00" fill="#000000"> &#160;Bootstrap</text>
<polygon fill="#fdb462" stroke="transparent" points="364.5,-10 364.5,-30 384.5,-30 384.5,-10 364.5,-10"/>
<text text-anchor="start" x="388.1732" y="-15.4" font-family="sans-serif" font-size="14.00" fill="#000000"> &#160;Providers</text>
<polygon fill="#fb8072" stroke="transparent" points="460.5,-10 460.5,-30 480.5,-30 480.5,-10 460.5,-10"/>
<text text-anchor="start" x="484.2258" y="-15.4" font-family="sans-serif" font-size="14.00" fill="#000000"> &#160;Exports</text>
<g id="clust1" class="cluster">
<title>cluster_CommonFeatureModule</title>
<polygon fill="none" stroke="#000000" stroke-dasharray="1,5" points="8,-70 8,-268 597,-268 597,-70 8,-70"/>
</g>
<g id="clust2" class="cluster">
<title>cluster_CommonFeatureModule_declarations</title>
<polygon fill="none" stroke="#000000" points="439,-78 439,-130 589,-130 589,-78 439,-78"/>
</g>
<g id="clust4" class="cluster">
<title>cluster_CommonFeatureModule_imports</title>
<polygon fill="none" stroke="#000000" points="16,-78 16,-130 431,-130 431,-78 16,-78"/>
</g>
<g id="clust5" class="cluster">
<title>cluster_CommonFeatureModule_exports</title>
<polygon fill="none" stroke="#000000" points="226,-208 226,-260 380,-260 380,-208 226,-208"/>
</g>
<!-- ExpanderComponent -->
<g id="node1" class="node">
<title>ExpanderComponent</title>
<polygon fill="#ffffb3" stroke="#000000" points="581.4748,-122 446.5252,-122 446.5252,-86 581.4748,-86 581.4748,-122"/>
<text text-anchor="middle" x="514" y="-99.8" font-family="Times,serif" font-size="14.00" fill="#000000">ExpanderComponent</text>
</g>
<!-- CommonFeatureModule -->
<g id="node2" class="node">
<title>CommonFeatureModule</title>
<polygon fill="#8dd3c7" stroke="#000000" points="379.6456,-187 376.6456,-191 355.6456,-191 352.6456,-187 226.3544,-187 226.3544,-151 379.6456,-151 379.6456,-187"/>
<text text-anchor="middle" x="303" y="-164.8" font-family="Times,serif" font-size="14.00" fill="#000000">CommonFeatureModule</text>
</g>
<!-- ExpanderComponent&#45;&gt;CommonFeatureModule -->
<g id="edge1" class="edge">
<title>ExpanderComponent&#45;&gt;CommonFeatureModule</title>
<path fill="none" stroke="#000000" d="M514,-122.1061C514,-141.3391 514,-169 514,-169 514,-169 389.7727,-169 389.7727,-169"/>
<polygon fill="#000000" stroke="#000000" points="389.7728,-165.5001 379.7727,-169 389.7727,-172.5001 389.7728,-165.5001"/>
</g>
<!-- ExpanderComponent  -->
<g id="node6" class="node">
<title>ExpanderComponent </title>
<polygon fill="#fb8072" stroke="#000000" points="372.4756,-252 233.5244,-252 233.5244,-216 372.4756,-216 372.4756,-252"/>
<text text-anchor="middle" x="303" y="-229.8" font-family="Times,serif" font-size="14.00" fill="#000000">ExpanderComponent </text>
</g>
<!-- CommonFeatureModule&#45;&gt;ExpanderComponent  -->
<g id="edge5" class="edge">
<title>CommonFeatureModule&#45;&gt;ExpanderComponent </title>
<path fill="none" stroke="#000000" stroke-dasharray="5,2" d="M303,-187.1061C303,-187.1061 303,-205.991 303,-205.991"/>
<polygon fill="#000000" stroke="#000000" points="299.5001,-205.9909 303,-215.991 306.5001,-205.991 299.5001,-205.9909"/>
</g>
<!-- CommonModule -->
<g id="node3" class="node">
<title>CommonModule</title>
<polygon fill="#8dd3c7" stroke="#000000" points="422.6681,-122 419.6681,-126 398.6681,-126 395.6681,-122 311.3319,-122 311.3319,-86 422.6681,-86 422.6681,-122"/>
<text text-anchor="middle" x="367" y="-99.8" font-family="Times,serif" font-size="14.00" fill="#000000">CommonModule</text>
</g>
<!-- CommonModule&#45;&gt;CommonFeatureModule -->
<g id="edge2" class="edge">
<title>CommonModule&#45;&gt;CommonFeatureModule</title>
<path fill="none" stroke="#000000" d="M345.4944,-122.1061C345.4944,-122.1061 345.4944,-140.991 345.4944,-140.991"/>
<polygon fill="#000000" stroke="#000000" points="341.9945,-140.9909 345.4944,-150.991 348.9945,-140.991 341.9945,-140.9909"/>
</g>
<!-- BrowserModule -->
<g id="node4" class="node">
<title>BrowserModule</title>
<polygon fill="#8dd3c7" stroke="#000000" points="293.4734,-122 290.4734,-126 269.4734,-126 266.4734,-122 186.5266,-122 186.5266,-86 293.4734,-86 293.4734,-122"/>
<text text-anchor="middle" x="240" y="-99.8" font-family="Times,serif" font-size="14.00" fill="#000000">BrowserModule</text>
</g>
<!-- BrowserModule&#45;&gt;CommonFeatureModule -->
<g id="edge3" class="edge">
<title>BrowserModule&#45;&gt;CommonFeatureModule</title>
<path fill="none" stroke="#000000" d="M259.8321,-122.1061C259.8321,-122.1061 259.8321,-140.991 259.8321,-140.991"/>
<polygon fill="#000000" stroke="#000000" points="256.3321,-140.9909 259.8321,-150.991 263.3321,-140.991 256.3321,-140.9909"/>
</g>
<!-- ReactiveFormsModule -->
<g id="node5" class="node">
<title>ReactiveFormsModule</title>
<polygon fill="#8dd3c7" stroke="#000000" points="168.3047,-122 165.3047,-126 144.3047,-126 141.3047,-122 23.6953,-122 23.6953,-86 168.3047,-86 168.3047,-122"/>
<text text-anchor="middle" x="96" y="-99.8" font-family="Times,serif" font-size="14.00" fill="#000000">ReactiveFormsModule</text>
</g>
<!-- ReactiveFormsModule&#45;&gt;CommonFeatureModule -->
<g id="edge4" class="edge">
<title>ReactiveFormsModule&#45;&gt;CommonFeatureModule</title>
<path fill="none" stroke="#000000" d="M96,-122.1061C96,-141.3391 96,-169 96,-169 96,-169 216.215,-169 216.215,-169"/>
<polygon fill="#000000" stroke="#000000" points="216.215,-172.5001 226.215,-169 216.215,-165.5001 216.215,-172.5001"/>
</g>
</g>
</svg>
