<?xml version="1.0" encoding="UTF-8" standalone="no"?>
<!DOCTYPE svg PUBLIC "-//W3C//DTD SVG 1.1//EN"
 "http://www.w3.org/Graphics/SVG/1.1/DTD/svg11.dtd">
<!-- Generated by graphviz version 2.40.1 (20161225.0304)
 -->
<!-- Title: dependencies Pages: 1 -->
<svg width="1995pt" height="284pt"
 viewBox="0.00 0.00 1995.00 284.00" xmlns="http://www.w3.org/2000/svg" xmlns:xlink="http://www.w3.org/1999/xlink">
<g id="graph0" class="graph" transform="scale(1 1) rotate(0) translate(4 280)">
<title>dependencies</title>
<polygon fill="#ffffff" stroke="transparent" points="-4,4 -4,-280 1991,-280 1991,4 -4,4"/>
<text text-anchor="start" x="972.5091" y="-42.4" font-family="sans-serif" font-weight="bold" font-size="14.00" fill="#000000">Legend</text>
<polygon fill="#ffffb3" stroke="transparent" points="759.5,-10 759.5,-30 779.5,-30 779.5,-10 759.5,-10"/>
<text text-anchor="start" x="783.129" y="-15.4" font-family="sans-serif" font-size="14.00" fill="#000000"> &#160;Declarations</text>
<polygon fill="#8dd3c7" stroke="transparent" points="872.5,-10 872.5,-30 892.5,-30 892.5,-10 872.5,-10"/>
<text text-anchor="start" x="896.2251" y="-15.4" font-family="sans-serif" font-size="14.00" fill="#000000"> &#160;Module</text>
<polygon fill="#80b1d3" stroke="transparent" points="958.5,-10 958.5,-30 978.5,-30 978.5,-10 958.5,-10"/>
<text text-anchor="start" x="982.2812" y="-15.4" font-family="sans-serif" font-size="14.00" fill="#000000"> &#160;Bootstrap</text>
<polygon fill="#fdb462" stroke="transparent" points="1055.5,-10 1055.5,-30 1075.5,-30 1075.5,-10 1055.5,-10"/>
<text text-anchor="start" x="1079.1732" y="-15.4" font-family="sans-serif" font-size="14.00" fill="#000000"> &#160;Providers</text>
<polygon fill="#fb8072" stroke="transparent" points="1151.5,-10 1151.5,-30 1171.5,-30 1171.5,-10 1151.5,-10"/>
<text text-anchor="start" x="1175.2258" y="-15.4" font-family="sans-serif" font-size="14.00" fill="#000000"> &#160;Exports</text>
<g id="clust1" class="cluster">
<title>cluster_AddressModule</title>
<polygon fill="none" stroke="#000000" stroke-dasharray="1,5" points="8,-70 8,-268 1979,-268 1979,-70 8,-70"/>
</g>
<g id="clust2" class="cluster">
<title>cluster_AddressModule_declarations</title>
<polygon fill="none" stroke="#000000" points="1382,-78 1382,-130 1971,-130 1971,-78 1382,-78"/>
</g>
<g id="clust6" class="cluster">
<title>cluster_AddressModule_imports</title>
<polygon fill="none" stroke="#000000" points="214,-78 214,-130 1374,-130 1374,-78 214,-78"/>
</g>
<g id="clust7" class="cluster">
<title>cluster_AddressModule_exports</title>
<polygon fill="none" stroke="#000000" points="638,-208 638,-260 1238,-260 1238,-208 638,-208"/>
</g>
<g id="clust9" class="cluster">
<title>cluster_AddressModule_providers</title>
<polygon fill="none" stroke="#000000" points="16,-78 16,-130 206,-130 206,-78 16,-78"/>
</g>
<!-- CompanyAddressRecordComponent -->
<g id="node1" class="node">
<title>CompanyAddressRecordComponent</title>
<polygon fill="#ffffb3" stroke="#000000" points="1963.0716,-122 1740.9284,-122 1740.9284,-86 1963.0716,-86 1963.0716,-122"/>
<text text-anchor="middle" x="1852" y="-99.8" font-family="Times,serif" font-size="14.00" fill="#000000">CompanyAddressRecordComponent</text>
</g>
<!-- AddressModule -->
<g id="node4" class="node">
<title>AddressModule</title>
<polygon fill="#8dd3c7" stroke="#000000" points="953.9216,-187 950.9216,-191 929.9216,-191 926.9216,-187 848.0784,-187 848.0784,-151 953.9216,-151 953.9216,-187"/>
<text text-anchor="middle" x="901" y="-164.8" font-family="Times,serif" font-size="14.00" fill="#000000">AddressModule</text>
</g>
<!-- CompanyAddressRecordComponent&#45;&gt;AddressModule -->
<g id="edge1" class="edge">
<title>CompanyAddressRecordComponent&#45;&gt;AddressModule</title>
<path fill="none" stroke="#000000" d="M1852,-122.2921C1852,-144.2057 1852,-178 1852,-178 1852,-178 963.8256,-178 963.8256,-178"/>
<polygon fill="#000000" stroke="#000000" points="963.8256,-174.5001 953.8256,-178 963.8256,-181.5001 963.8256,-174.5001"/>
</g>
<!-- AddressDetailsComponent -->
<g id="node2" class="node">
<title>AddressDetailsComponent</title>
<polygon fill="#ffffb3" stroke="#000000" points="1723.3557,-122 1556.6443,-122 1556.6443,-86 1723.3557,-86 1723.3557,-122"/>
<text text-anchor="middle" x="1640" y="-99.8" font-family="Times,serif" font-size="14.00" fill="#000000">AddressDetailsComponent</text>
</g>
<!-- AddressDetailsComponent&#45;&gt;AddressModule -->
<g id="edge2" class="edge">
<title>AddressDetailsComponent&#45;&gt;AddressModule</title>
<path fill="none" stroke="#000000" d="M1640,-122.0267C1640,-142.7672 1640,-174 1640,-174 1640,-174 963.8505,-174 963.8505,-174"/>
<polygon fill="#000000" stroke="#000000" points="963.8505,-170.5001 953.8505,-174 963.8505,-177.5001 963.8505,-170.5001"/>
</g>
<!-- AddressListComponent -->
<g id="node3" class="node">
<title>AddressListComponent</title>
<polygon fill="#ffffb3" stroke="#000000" points="1538.4818,-122 1389.5182,-122 1389.5182,-86 1538.4818,-86 1538.4818,-122"/>
<text text-anchor="middle" x="1464" y="-99.8" font-family="Times,serif" font-size="14.00" fill="#000000">AddressListComponent</text>
</g>
<!-- AddressListComponent&#45;&gt;AddressModule -->
<g id="edge3" class="edge">
<title>AddressListComponent&#45;&gt;AddressModule</title>
<path fill="none" stroke="#000000" d="M1464,-122.1061C1464,-141.3391 1464,-169 1464,-169 1464,-169 963.7126,-169 963.7126,-169"/>
<polygon fill="#000000" stroke="#000000" points="963.7127,-165.5001 953.7126,-169 963.7126,-172.5001 963.7127,-165.5001"/>
</g>
<!-- CompanyAddressRecordComponent  -->
<g id="node14" class="node">
<title>CompanyAddressRecordComponent </title>
<polygon fill="#fb8072" stroke="#000000" points="1229.572,-252 1004.428,-252 1004.428,-216 1229.572,-216 1229.572,-252"/>
<text text-anchor="middle" x="1117" y="-229.8" font-family="Times,serif" font-size="14.00" fill="#000000">CompanyAddressRecordComponent </text>
</g>
<!-- AddressModule&#45;&gt;CompanyAddressRecordComponent  -->
<g id="edge13" class="edge">
<title>AddressModule&#45;&gt;CompanyAddressRecordComponent </title>
<path fill="none" stroke="#000000" stroke-dasharray="5,2" d="M954.0458,-183C999.5008,-183 1057.6832,-183 1057.6832,-183 1057.6832,-183 1057.6832,-205.8757 1057.6832,-205.8757"/>
<polygon fill="#000000" stroke="#000000" points="1054.1833,-205.8757 1057.6832,-215.8757 1061.1833,-205.8757 1054.1833,-205.8757"/>
</g>
<!-- AddressDetailsComponent  -->
<g id="node15" class="node">
<title>AddressDetailsComponent </title>
<polygon fill="#fb8072" stroke="#000000" points="986.356,-252 815.644,-252 815.644,-216 986.356,-216 986.356,-252"/>
<text text-anchor="middle" x="901" y="-229.8" font-family="Times,serif" font-size="14.00" fill="#000000">AddressDetailsComponent </text>
</g>
<!-- AddressModule&#45;&gt;AddressDetailsComponent  -->
<g id="edge14" class="edge">
<title>AddressModule&#45;&gt;AddressDetailsComponent </title>
<path fill="none" stroke="#000000" stroke-dasharray="5,2" d="M901,-187.1061C901,-187.1061 901,-205.991 901,-205.991"/>
<polygon fill="#000000" stroke="#000000" points="897.5001,-205.9909 901,-215.991 904.5001,-205.991 897.5001,-205.9909"/>
</g>
<!-- AddressListComponent  -->
<g id="node16" class="node">
<title>AddressListComponent </title>
<polygon fill="#fb8072" stroke="#000000" points="798.4826,-252 645.5174,-252 645.5174,-216 798.4826,-216 798.4826,-252"/>
<text text-anchor="middle" x="722" y="-229.8" font-family="Times,serif" font-size="14.00" fill="#000000">AddressListComponent </text>
</g>
<!-- AddressModule&#45;&gt;AddressListComponent  -->
<g id="edge15" class="edge">
<title>AddressModule&#45;&gt;AddressListComponent </title>
<path fill="none" stroke="#000000" stroke-dasharray="5,2" d="M847.9661,-183C811.5203,-183 769.6811,-183 769.6811,-183 769.6811,-183 769.6811,-205.8757 769.6811,-205.8757"/>
<polygon fill="#000000" stroke="#000000" points="766.1812,-205.8757 769.6811,-215.8757 773.1812,-205.8757 766.1812,-205.8757"/>
</g>
<!-- CommonModule -->
<g id="node5" class="node">
<title>CommonModule</title>
<polygon fill="#8dd3c7" stroke="#000000" points="1365.6681,-122 1362.6681,-126 1341.6681,-126 1338.6681,-122 1254.3319,-122 1254.3319,-86 1365.6681,-86 1365.6681,-122"/>
<text text-anchor="middle" x="1310" y="-99.8" font-family="Times,serif" font-size="14.00" fill="#000000">CommonModule</text>
</g>
<!-- CommonModule&#45;&gt;AddressModule -->
<g id="edge4" class="edge">
<title>CommonModule&#45;&gt;AddressModule</title>
<path fill="none" stroke="#000000" d="M1310,-122.302C1310,-140.2699 1310,-165 1310,-165 1310,-165 964.0503,-165 964.0503,-165"/>
<polygon fill="#000000" stroke="#000000" points="964.0503,-161.5001 954.0503,-165 964.0503,-168.5001 964.0503,-161.5001"/>
</g>
<!-- BrowserModule -->
<g id="node6" class="node">
<title>BrowserModule</title>
<polygon fill="#8dd3c7" stroke="#000000" points="1236.4734,-122 1233.4734,-126 1212.4734,-126 1209.4734,-122 1129.5266,-122 1129.5266,-86 1236.4734,-86 1236.4734,-122"/>
<text text-anchor="middle" x="1183" y="-99.8" font-family="Times,serif" font-size="14.00" fill="#000000">BrowserModule</text>
</g>
<!-- BrowserModule&#45;&gt;AddressModule -->
<g id="edge5" class="edge">
<title>BrowserModule&#45;&gt;AddressModule</title>
<path fill="none" stroke="#000000" d="M1179.6496,-122.027C1179.6496,-138.3976 1179.6496,-160 1179.6496,-160 1179.6496,-160 963.7394,-160 963.7394,-160"/>
<polygon fill="#000000" stroke="#000000" points="963.7395,-156.5001 953.7394,-160 963.7394,-163.5001 963.7395,-156.5001"/>
</g>
<!-- ReactiveFormsModule -->
<g id="node7" class="node">
<title>ReactiveFormsModule</title>
<polygon fill="#8dd3c7" stroke="#000000" points="1111.3047,-122 1108.3047,-126 1087.3047,-126 1084.3047,-122 966.6953,-122 966.6953,-86 1111.3047,-86 1111.3047,-122"/>
<text text-anchor="middle" x="1039" y="-99.8" font-family="Times,serif" font-size="14.00" fill="#000000">ReactiveFormsModule</text>
</g>
<!-- ReactiveFormsModule&#45;&gt;AddressModule -->
<g id="edge6" class="edge">
<title>ReactiveFormsModule&#45;&gt;AddressModule</title>
<path fill="none" stroke="#000000" d="M976.5128,-122.1871C976.5128,-137.1824 976.5128,-156 976.5128,-156 976.5128,-156 963.8565,-156 963.8565,-156"/>
<polygon fill="#000000" stroke="#000000" points="963.8565,-152.5001 953.8565,-156 963.8564,-159.5001 963.8565,-152.5001"/>
</g>
<!-- FormsModule -->
<g id="node8" class="node">
<title>FormsModule</title>
<polygon fill="#8dd3c7" stroke="#000000" points="948.8288,-122 945.8288,-126 924.8288,-126 921.8288,-122 853.1712,-122 853.1712,-86 948.8288,-86 948.8288,-122"/>
<text text-anchor="middle" x="901" y="-99.8" font-family="Times,serif" font-size="14.00" fill="#000000">FormsModule</text>
</g>
<!-- FormsModule&#45;&gt;AddressModule -->
<g id="edge7" class="edge">
<title>FormsModule&#45;&gt;AddressModule</title>
<path fill="none" stroke="#000000" d="M901,-122.1061C901,-122.1061 901,-140.991 901,-140.991"/>
<polygon fill="#000000" stroke="#000000" points="897.5001,-140.9909 901,-150.991 904.5001,-140.991 897.5001,-140.9909"/>
</g>
<!-- SelectModule -->
<g id="node9" class="node">
<title>SelectModule</title>
<polygon fill="#8dd3c7" stroke="#000000" points="834.7577,-122 831.7577,-126 810.7577,-126 807.7577,-122 741.2423,-122 741.2423,-86 834.7577,-86 834.7577,-122"/>
<text text-anchor="middle" x="788" y="-99.8" font-family="Times,serif" font-size="14.00" fill="#000000">SelectModule</text>
</g>
<!-- SelectModule&#45;&gt;AddressModule -->
<g id="edge8" class="edge">
<title>SelectModule&#45;&gt;AddressModule</title>
<path fill="none" stroke="#000000" d="M825.3504,-122.1871C825.3504,-137.1824 825.3504,-156 825.3504,-156 825.3504,-156 838.0478,-156 838.0478,-156"/>
<polygon fill="#000000" stroke="#000000" points="838.0478,-159.5001 848.0478,-156 838.0478,-152.5001 838.0478,-159.5001"/>
</g>
<!-- FileIoModule -->
<g id="node10" class="node">
<title>FileIoModule</title>
<polygon fill="#8dd3c7" stroke="#000000" points="723.4888,-122 720.4888,-126 699.4888,-126 696.4888,-122 630.5112,-122 630.5112,-86 723.4888,-86 723.4888,-122"/>
<text text-anchor="middle" x="677" y="-99.8" font-family="Times,serif" font-size="14.00" fill="#000000">FileIoModule</text>
</g>
<!-- FileIoModule&#45;&gt;AddressModule -->
<g id="edge9" class="edge">
<title>FileIoModule&#45;&gt;AddressModule</title>
<path fill="none" stroke="#000000" d="M684.6268,-122.027C684.6268,-138.3976 684.6268,-160 684.6268,-160 684.6268,-160 838.0691,-160 838.0691,-160"/>
<polygon fill="#000000" stroke="#000000" points="838.0692,-163.5001 848.0691,-160 838.0691,-156.5001 838.0692,-163.5001"/>
</g>
<!-- ErrorModule -->
<g id="node11" class="node">
<title>ErrorModule</title>
<polygon fill="#8dd3c7" stroke="#000000" points="612.5842,-122 609.5842,-126 588.5842,-126 585.5842,-122 523.4158,-122 523.4158,-86 612.5842,-86 612.5842,-122"/>
<text text-anchor="middle" x="568" y="-99.8" font-family="Times,serif" font-size="14.00" fill="#000000">ErrorModule</text>
</g>
<!-- ErrorModule&#45;&gt;AddressModule -->
<g id="edge10" class="edge">
<title>ErrorModule&#45;&gt;AddressModule</title>
<path fill="none" stroke="#000000" d="M568,-122.302C568,-140.2699 568,-165 568,-165 568,-165 838.2352,-165 838.2352,-165"/>
<polygon fill="#000000" stroke="#000000" points="838.2352,-168.5001 848.2352,-165 838.2351,-161.5001 838.2352,-168.5001"/>
</g>
<!-- CommonFeatureModule -->
<g id="node12" class="node">
<title>CommonFeatureModule</title>
<polygon fill="#8dd3c7" stroke="#000000" points="505.6456,-122 502.6456,-126 481.6456,-126 478.6456,-122 352.3544,-122 352.3544,-86 505.6456,-86 505.6456,-122"/>
<text text-anchor="middle" x="429" y="-99.8" font-family="Times,serif" font-size="14.00" fill="#000000">CommonFeatureModule</text>
</g>
<!-- CommonFeatureModule&#45;&gt;AddressModule -->
<g id="edge11" class="edge">
<title>CommonFeatureModule&#45;&gt;AddressModule</title>
<path fill="none" stroke="#000000" d="M429,-122.1061C429,-141.3391 429,-169 429,-169 429,-169 838.2295,-169 838.2295,-169"/>
<polygon fill="#000000" stroke="#000000" points="838.2295,-172.5001 848.2295,-169 838.2295,-165.5001 838.2295,-172.5001"/>
</g>
<!-- TranslateModule -->
<g id="node13" class="node">
<title>TranslateModule</title>
<polygon fill="#8dd3c7" stroke="#000000" points="333.6332,-122 330.6332,-126 309.6332,-126 306.6332,-122 222.3668,-122 222.3668,-86 333.6332,-86 333.6332,-122"/>
<text text-anchor="middle" x="278" y="-99.8" font-family="Times,serif" font-size="14.00" fill="#000000">TranslateModule</text>
</g>
<!-- TranslateModule&#45;&gt;AddressModule -->
<g id="edge12" class="edge">
<title>TranslateModule&#45;&gt;AddressModule</title>
<path fill="none" stroke="#000000" d="M278,-122.0267C278,-142.7672 278,-174 278,-174 278,-174 838.1521,-174 838.1521,-174"/>
<polygon fill="#000000" stroke="#000000" points="838.1522,-177.5001 848.1521,-174 838.1521,-170.5001 838.1522,-177.5001"/>
</g>
<!-- AddressListService -->
<g id="node17" class="node">
<title>AddressListService</title>
<ellipse fill="#fdb462" stroke="#000000" cx="111" cy="-104" rx="86.8107" ry="18"/>
<text text-anchor="middle" x="111" y="-99.8" font-family="Times,serif" font-size="14.00" fill="#000000">AddressListService</text>
</g>
<!-- AddressListService&#45;&gt;AddressModule -->
<g id="edge16" class="edge">
<title>AddressListService&#45;&gt;AddressModule</title>
<path fill="none" stroke="#000000" d="M111,-122.2921C111,-144.2057 111,-178 111,-178 111,-178 838.247,-178 838.247,-178"/>
<polygon fill="#000000" stroke="#000000" points="838.2471,-181.5001 848.247,-178 838.247,-174.5001 838.2471,-181.5001"/>
</g>
</g>
</svg>
