<?xml version="1.0" encoding="UTF-8" standalone="no"?>
<!DOCTYPE svg PUBLIC "-//W3C//DTD SVG 1.1//EN"
 "http://www.w3.org/Graphics/SVG/1.1/DTD/svg11.dtd">
<!-- Generated by graphviz version 2.40.1 (20161225.0304)
 -->
<!-- Title: dependencies Pages: 1 -->
<svg width="1865pt" height="284pt"
 viewBox="0.00 0.00 1865.00 284.00" xmlns="http://www.w3.org/2000/svg" xmlns:xlink="http://www.w3.org/1999/xlink">
<g id="graph0" class="graph" transform="scale(1 1) rotate(0) translate(4 280)">
<title>dependencies</title>
<polygon fill="#ffffff" stroke="transparent" points="-4,4 -4,-280 1861,-280 1861,4 -4,4"/>
<text text-anchor="start" x="907.5091" y="-42.4" font-family="sans-serif" font-weight="bold" font-size="14.00" fill="#000000">Legend</text>
<polygon fill="#ffffb3" stroke="transparent" points="694.5,-10 694.5,-30 714.5,-30 714.5,-10 694.5,-10"/>
<text text-anchor="start" x="718.129" y="-15.4" font-family="sans-serif" font-size="14.00" fill="#000000"> &#160;Declarations</text>
<polygon fill="#8dd3c7" stroke="transparent" points="807.5,-10 807.5,-30 827.5,-30 827.5,-10 807.5,-10"/>
<text text-anchor="start" x="831.2251" y="-15.4" font-family="sans-serif" font-size="14.00" fill="#000000"> &#160;Module</text>
<polygon fill="#80b1d3" stroke="transparent" points="893.5,-10 893.5,-30 913.5,-30 913.5,-10 893.5,-10"/>
<text text-anchor="start" x="917.2812" y="-15.4" font-family="sans-serif" font-size="14.00" fill="#000000"> &#160;Bootstrap</text>
<polygon fill="#fdb462" stroke="transparent" points="990.5,-10 990.5,-30 1010.5,-30 1010.5,-10 990.5,-10"/>
<text text-anchor="start" x="1014.1732" y="-15.4" font-family="sans-serif" font-size="14.00" fill="#000000"> &#160;Providers</text>
<polygon fill="#fb8072" stroke="transparent" points="1086.5,-10 1086.5,-30 1106.5,-30 1106.5,-10 1086.5,-10"/>
<text text-anchor="start" x="1110.2258" y="-15.4" font-family="sans-serif" font-size="14.00" fill="#000000"> &#160;Exports</text>
<g id="clust1" class="cluster">
<title>cluster_AddressModule</title>
<polygon fill="none" stroke="#000000" stroke-dasharray="1,5" points="8,-70 8,-268 1849,-268 1849,-70 8,-70"/>
</g>
<g id="clust2" class="cluster">
<title>cluster_AddressModule_declarations</title>
<polygon fill="none" stroke="#000000" points="1252,-78 1252,-130 1841,-130 1841,-78 1252,-78"/>
</g>
<g id="clust6" class="cluster">
<title>cluster_AddressModule_imports</title>
<polygon fill="none" stroke="#000000" points="214,-78 214,-130 1244,-130 1244,-78 214,-78"/>
</g>
<g id="clust7" class="cluster">
<title>cluster_AddressModule_exports</title>
<polygon fill="none" stroke="#000000" points="577,-208 577,-260 1177,-260 1177,-208 577,-208"/>
</g>
<g id="clust9" class="cluster">
<title>cluster_AddressModule_providers</title>
<polygon fill="none" stroke="#000000" points="16,-78 16,-130 206,-130 206,-78 16,-78"/>
</g>
<!-- CompanyAddressRecordComponent -->
<g id="node1" class="node">
<title>CompanyAddressRecordComponent</title>
<polygon fill="#ffffb3" stroke="#000000" points="1833.0716,-122 1610.9284,-122 1610.9284,-86 1833.0716,-86 1833.0716,-122"/>
<text text-anchor="middle" x="1722" y="-99.8" font-family="Times,serif" font-size="14.00" fill="#000000">CompanyAddressRecordComponent</text>
</g>
<!-- AddressModule -->
<g id="node4" class="node">
<title>AddressModule</title>
<polygon fill="#8dd3c7" stroke="#000000" points="892.9216,-187 889.9216,-191 868.9216,-191 865.9216,-187 787.0784,-187 787.0784,-151 892.9216,-151 892.9216,-187"/>
<text text-anchor="middle" x="840" y="-164.8" font-family="Times,serif" font-size="14.00" fill="#000000">AddressModule</text>
</g>
<!-- CompanyAddressRecordComponent&#45;&gt;AddressModule -->
<g id="edge1" class="edge">
<title>CompanyAddressRecordComponent&#45;&gt;AddressModule</title>
<path fill="none" stroke="#000000" d="M1722,-122.0449C1722,-143.6623 1722,-177 1722,-177 1722,-177 902.8588,-177 902.8588,-177"/>
<polygon fill="#000000" stroke="#000000" points="902.8589,-173.5001 892.8588,-177 902.8588,-180.5001 902.8589,-173.5001"/>
</g>
<!-- AddressDetailsComponent -->
<g id="node2" class="node">
<title>AddressDetailsComponent</title>
<polygon fill="#ffffb3" stroke="#000000" points="1593.3557,-122 1426.6443,-122 1426.6443,-86 1593.3557,-86 1593.3557,-122"/>
<text text-anchor="middle" x="1510" y="-99.8" font-family="Times,serif" font-size="14.00" fill="#000000">AddressDetailsComponent</text>
</g>
<!-- AddressDetailsComponent&#45;&gt;AddressModule -->
<g id="edge2" class="edge">
<title>AddressDetailsComponent&#45;&gt;AddressModule</title>
<path fill="none" stroke="#000000" d="M1510,-122.2228C1510,-142.3652 1510,-172 1510,-172 1510,-172 902.8535,-172 902.8535,-172"/>
<polygon fill="#000000" stroke="#000000" points="902.8535,-168.5001 892.8535,-172 902.8534,-175.5001 902.8535,-168.5001"/>
</g>
<!-- AddressListComponent -->
<g id="node3" class="node">
<title>AddressListComponent</title>
<polygon fill="#ffffb3" stroke="#000000" points="1408.4818,-122 1259.5182,-122 1259.5182,-86 1408.4818,-86 1408.4818,-122"/>
<text text-anchor="middle" x="1334" y="-99.8" font-family="Times,serif" font-size="14.00" fill="#000000">AddressListComponent</text>
</g>
<!-- AddressListComponent&#45;&gt;AddressModule -->
<g id="edge3" class="edge">
<title>AddressListComponent&#45;&gt;AddressModule</title>
<path fill="none" stroke="#000000" d="M1334,-122.2222C1334,-140.8285 1334,-167 1334,-167 1334,-167 902.8667,-167 902.8667,-167"/>
<polygon fill="#000000" stroke="#000000" points="902.8667,-163.5001 892.8667,-167 902.8666,-170.5001 902.8667,-163.5001"/>
</g>
<!-- CompanyAddressRecordComponent  -->
<g id="node13" class="node">
<title>CompanyAddressRecordComponent </title>
<polygon fill="#fb8072" stroke="#000000" points="1168.572,-252 943.428,-252 943.428,-216 1168.572,-216 1168.572,-252"/>
<text text-anchor="middle" x="1056" y="-229.8" font-family="Times,serif" font-size="14.00" fill="#000000">CompanyAddressRecordComponent </text>
</g>
<!-- AddressModule&#45;&gt;CompanyAddressRecordComponent  -->
<g id="edge12" class="edge">
<title>AddressModule&#45;&gt;CompanyAddressRecordComponent </title>
<path fill="none" stroke="#000000" stroke-dasharray="5,2" d="M892.8807,-182C925.9021,-182 962.1832,-182 962.1832,-182 962.1832,-182 962.1832,-205.8129 962.1832,-205.8129"/>
<polygon fill="#000000" stroke="#000000" points="958.6833,-205.8129 962.1832,-215.8129 965.6833,-205.813 958.6833,-205.8129"/>
</g>
<!-- AddressDetailsComponent  -->
<g id="node14" class="node">
<title>AddressDetailsComponent </title>
<polygon fill="#fb8072" stroke="#000000" points="925.356,-252 754.644,-252 754.644,-216 925.356,-216 925.356,-252"/>
<text text-anchor="middle" x="840" y="-229.8" font-family="Times,serif" font-size="14.00" fill="#000000">AddressDetailsComponent </text>
</g>
<!-- AddressModule&#45;&gt;AddressDetailsComponent  -->
<g id="edge13" class="edge">
<title>AddressModule&#45;&gt;AddressDetailsComponent </title>
<path fill="none" stroke="#000000" stroke-dasharray="5,2" d="M840,-187.1061C840,-187.1061 840,-205.991 840,-205.991"/>
<polygon fill="#000000" stroke="#000000" points="836.5001,-205.9909 840,-215.991 843.5001,-205.991 836.5001,-205.9909"/>
</g>
<!-- AddressListComponent  -->
<g id="node15" class="node">
<title>AddressListComponent </title>
<polygon fill="#fb8072" stroke="#000000" points="737.4826,-252 584.5174,-252 584.5174,-216 737.4826,-216 737.4826,-252"/>
<text text-anchor="middle" x="661" y="-229.8" font-family="Times,serif" font-size="14.00" fill="#000000">AddressListComponent </text>
</g>
<!-- AddressModule&#45;&gt;AddressListComponent  -->
<g id="edge14" class="edge">
<title>AddressModule&#45;&gt;AddressListComponent </title>
<path fill="none" stroke="#000000" stroke-dasharray="5,2" d="M787.0724,-182C759.017,-182 730.2884,-182 730.2884,-182 730.2884,-182 730.2884,-205.8129 730.2884,-205.8129"/>
<polygon fill="#000000" stroke="#000000" points="726.7885,-205.8129 730.2884,-215.8129 733.7885,-205.813 726.7885,-205.8129"/>
</g>
<!-- CommonModule -->
<g id="node5" class="node">
<title>CommonModule</title>
<polygon fill="#8dd3c7" stroke="#000000" points="1235.6681,-122 1232.6681,-126 1211.6681,-126 1208.6681,-122 1124.3319,-122 1124.3319,-86 1235.6681,-86 1235.6681,-122"/>
<text text-anchor="middle" x="1180" y="-99.8" font-family="Times,serif" font-size="14.00" fill="#000000">CommonModule</text>
</g>
<!-- CommonModule&#45;&gt;AddressModule -->
<g id="edge4" class="edge">
<title>CommonModule&#45;&gt;AddressModule</title>
<path fill="none" stroke="#000000" d="M1146.476,-122.0336C1146.476,-139.0597 1146.476,-162 1146.476,-162 1146.476,-162 903.0342,-162 903.0342,-162"/>
<polygon fill="#000000" stroke="#000000" points="903.0342,-158.5001 893.0342,-162 903.0341,-165.5001 903.0342,-158.5001"/>
</g>
<!-- BrowserModule -->
<g id="node6" class="node">
<title>BrowserModule</title>
<polygon fill="#8dd3c7" stroke="#000000" points="1106.4734,-122 1103.4734,-126 1082.4734,-126 1079.4734,-122 999.5266,-122 999.5266,-86 1106.4734,-86 1106.4734,-122"/>
<text text-anchor="middle" x="1053" y="-99.8" font-family="Times,serif" font-size="14.00" fill="#000000">BrowserModule</text>
</g>
<!-- BrowserModule&#45;&gt;AddressModule -->
<g id="edge5" class="edge">
<title>BrowserModule&#45;&gt;AddressModule</title>
<path fill="none" stroke="#000000" d="M1053,-122.2396C1053,-137.5706 1053,-157 1053,-157 1053,-157 902.9254,-157 902.9254,-157"/>
<polygon fill="#000000" stroke="#000000" points="902.9254,-153.5001 892.9254,-157 902.9253,-160.5001 902.9254,-153.5001"/>
</g>
<!-- ReactiveFormsModule -->
<g id="node7" class="node">
<title>ReactiveFormsModule</title>
<polygon fill="#8dd3c7" stroke="#000000" points="981.3047,-122 978.3047,-126 957.3047,-126 954.3047,-122 836.6953,-122 836.6953,-86 981.3047,-86 981.3047,-122"/>
<text text-anchor="middle" x="909" y="-99.8" font-family="Times,serif" font-size="14.00" fill="#000000">ReactiveFormsModule</text>
</g>
<!-- ReactiveFormsModule&#45;&gt;AddressModule -->
<g id="edge6" class="edge">
<title>ReactiveFormsModule&#45;&gt;AddressModule</title>
<path fill="none" stroke="#000000" d="M864.7791,-122.1061C864.7791,-122.1061 864.7791,-140.991 864.7791,-140.991"/>
<polygon fill="#000000" stroke="#000000" points="861.2792,-140.9909 864.7791,-150.991 868.2792,-140.991 861.2792,-140.9909"/>
</g>
<!-- FormsModule -->
<g id="node8" class="node">
<title>FormsModule</title>
<polygon fill="#8dd3c7" stroke="#000000" points="818.8288,-122 815.8288,-126 794.8288,-126 791.8288,-122 723.1712,-122 723.1712,-86 818.8288,-86 818.8288,-122"/>
<text text-anchor="middle" x="771" y="-99.8" font-family="Times,serif" font-size="14.00" fill="#000000">FormsModule</text>
</g>
<!-- FormsModule&#45;&gt;AddressModule -->
<g id="edge7" class="edge">
<title>FormsModule&#45;&gt;AddressModule</title>
<path fill="none" stroke="#000000" d="M802.9769,-122.1061C802.9769,-122.1061 802.9769,-140.991 802.9769,-140.991"/>
<polygon fill="#000000" stroke="#000000" points="799.4769,-140.9909 802.9769,-150.991 806.4769,-140.991 799.4769,-140.9909"/>
</g>
<!-- SelectModule -->
<g id="node9" class="node">
<title>SelectModule</title>
<polygon fill="#8dd3c7" stroke="#000000" points="704.7577,-122 701.7577,-126 680.7577,-126 677.7577,-122 611.2423,-122 611.2423,-86 704.7577,-86 704.7577,-122"/>
<text text-anchor="middle" x="658" y="-99.8" font-family="Times,serif" font-size="14.00" fill="#000000">SelectModule</text>
</g>
<!-- SelectModule&#45;&gt;AddressModule -->
<g id="edge8" class="edge">
<title>SelectModule&#45;&gt;AddressModule</title>
<path fill="none" stroke="#000000" d="M658,-122.2396C658,-137.5706 658,-157 658,-157 658,-157 776.8688,-157 776.8688,-157"/>
<polygon fill="#000000" stroke="#000000" points="776.8688,-160.5001 786.8688,-157 776.8688,-153.5001 776.8688,-160.5001"/>
</g>
<!-- FileIoModule -->
<g id="node10" class="node">
<title>FileIoModule</title>
<polygon fill="#8dd3c7" stroke="#000000" points="593.4888,-122 590.4888,-126 569.4888,-126 566.4888,-122 500.5112,-122 500.5112,-86 593.4888,-86 593.4888,-122"/>
<text text-anchor="middle" x="547" y="-99.8" font-family="Times,serif" font-size="14.00" fill="#000000">FileIoModule</text>
</g>
<!-- FileIoModule&#45;&gt;AddressModule -->
<g id="edge9" class="edge">
<title>FileIoModule&#45;&gt;AddressModule</title>
<path fill="none" stroke="#000000" d="M589.1268,-122.0336C589.1268,-139.0597 589.1268,-162 589.1268,-162 589.1268,-162 777.1028,-162 777.1028,-162"/>
<polygon fill="#000000" stroke="#000000" points="777.1028,-165.5001 787.1028,-162 777.1027,-158.5001 777.1028,-165.5001"/>
</g>
<!-- ErrorModule -->
<g id="node11" class="node">
<title>ErrorModule</title>
<polygon fill="#8dd3c7" stroke="#000000" points="482.5842,-122 479.5842,-126 458.5842,-126 455.5842,-122 393.4158,-122 393.4158,-86 482.5842,-86 482.5842,-122"/>
<text text-anchor="middle" x="438" y="-99.8" font-family="Times,serif" font-size="14.00" fill="#000000">ErrorModule</text>
</g>
<!-- ErrorModule&#45;&gt;AddressModule -->
<g id="edge10" class="edge">
<title>ErrorModule&#45;&gt;AddressModule</title>
<path fill="none" stroke="#000000" d="M438,-122.2222C438,-140.8285 438,-167 438,-167 438,-167 777.0321,-167 777.0321,-167"/>
<polygon fill="#000000" stroke="#000000" points="777.0322,-170.5001 787.0321,-167 777.0321,-163.5001 777.0322,-170.5001"/>
</g>
<!-- CommonFeatureModule -->
<g id="node12" class="node">
<title>CommonFeatureModule</title>
<polygon fill="#8dd3c7" stroke="#000000" points="375.6456,-122 372.6456,-126 351.6456,-126 348.6456,-122 222.3544,-122 222.3544,-86 375.6456,-86 375.6456,-122"/>
<text text-anchor="middle" x="299" y="-99.8" font-family="Times,serif" font-size="14.00" fill="#000000">CommonFeatureModule</text>
</g>
<!-- CommonFeatureModule&#45;&gt;AddressModule -->
<g id="edge11" class="edge">
<title>CommonFeatureModule&#45;&gt;AddressModule</title>
<path fill="none" stroke="#000000" d="M299,-122.2228C299,-142.3652 299,-172 299,-172 299,-172 777.1416,-172 777.1416,-172"/>
<polygon fill="#000000" stroke="#000000" points="777.1417,-175.5001 787.1416,-172 777.1416,-168.5001 777.1417,-175.5001"/>
</g>
<!-- AddressListService -->
<g id="node16" class="node">
<title>AddressListService</title>
<ellipse fill="#fdb462" stroke="#000000" cx="111" cy="-104" rx="86.8107" ry="18"/>
<text text-anchor="middle" x="111" y="-99.8" font-family="Times,serif" font-size="14.00" fill="#000000">AddressListService</text>
</g>
<!-- AddressListService&#45;&gt;AddressModule -->
<g id="edge15" class="edge">
<title>AddressListService&#45;&gt;AddressModule</title>
<path fill="none" stroke="#000000" d="M111,-122.0449C111,-143.6623 111,-177 111,-177 111,-177 777.2789,-177 777.2789,-177"/>
<polygon fill="#000000" stroke="#000000" points="777.2789,-180.5001 787.2789,-177 777.2788,-173.5001 777.2789,-180.5001"/>
</g>
</g>
</svg>
