<?xml version="1.0" encoding="UTF-8" standalone="no"?>
<!DOCTYPE svg PUBLIC "-//W3C//DTD SVG 1.1//EN"
 "http://www.w3.org/Graphics/SVG/1.1/DTD/svg11.dtd">
<!-- Generated by graphviz version 2.40.1 (20161225.0304)
 -->
<!-- Title: dependencies Pages: 1 -->
<svg width="1644pt" height="284pt"
 viewBox="0.00 0.00 1644.00 284.00" xmlns="http://www.w3.org/2000/svg" xmlns:xlink="http://www.w3.org/1999/xlink">
<g id="graph0" class="graph" transform="scale(1 1) rotate(0) translate(4 280)">
<title>dependencies</title>
<polygon fill="#ffffff" stroke="transparent" points="-4,4 -4,-280 1640,-280 1640,4 -4,4"/>
<text text-anchor="start" x="797.0091" y="-42.4" font-family="sans-serif" font-weight="bold" font-size="14.00" fill="#000000">Legend</text>
<polygon fill="#ffffb3" stroke="transparent" points="584,-10 584,-30 604,-30 604,-10 584,-10"/>
<text text-anchor="start" x="607.629" y="-15.4" font-family="sans-serif" font-size="14.00" fill="#000000"> &#160;Declarations</text>
<polygon fill="#8dd3c7" stroke="transparent" points="697,-10 697,-30 717,-30 717,-10 697,-10"/>
<text text-anchor="start" x="720.7251" y="-15.4" font-family="sans-serif" font-size="14.00" fill="#000000"> &#160;Module</text>
<polygon fill="#80b1d3" stroke="transparent" points="783,-10 783,-30 803,-30 803,-10 783,-10"/>
<text text-anchor="start" x="806.7812" y="-15.4" font-family="sans-serif" font-size="14.00" fill="#000000"> &#160;Bootstrap</text>
<polygon fill="#fdb462" stroke="transparent" points="880,-10 880,-30 900,-30 900,-10 880,-10"/>
<text text-anchor="start" x="903.6732" y="-15.4" font-family="sans-serif" font-size="14.00" fill="#000000"> &#160;Providers</text>
<polygon fill="#fb8072" stroke="transparent" points="976,-10 976,-30 996,-30 996,-10 976,-10"/>
<text text-anchor="start" x="999.7258" y="-15.4" font-family="sans-serif" font-size="14.00" fill="#000000"> &#160;Exports</text>
<g id="clust1" class="cluster">
<title>cluster_AppModule</title>
<polygon fill="none" stroke="#000000" stroke-dasharray="1,5" points="8,-70 8,-268 1628,-268 1628,-70 8,-70"/>
</g>
<g id="clust2" class="cluster">
<title>cluster_AppModule_declarations</title>
<polygon fill="none" stroke="#000000" points="608,-78 608,-130 1620,-130 1620,-78 608,-78"/>
</g>
<g id="clust9" class="cluster">
<title>cluster_AppModule_imports</title>
<polygon fill="none" stroke="#000000" points="202,-78 202,-130 600,-130 600,-78 202,-78"/>
</g>
<g id="clust11" class="cluster">
<title>cluster_AppModule_bootstrap</title>
<polygon fill="none" stroke="#000000" points="719,-208 719,-260 843,-260 843,-208 719,-208"/>
</g>
<g id="clust12" class="cluster">
<title>cluster_AppModule_providers</title>
<polygon fill="none" stroke="#000000" points="16,-78 16,-130 194,-130 194,-78 16,-78"/>
</g>
<!-- AppComponent -->
<g id="node1" class="node">
<title>AppComponent</title>
<polygon fill="#ffffb3" stroke="#000000" points="1611.9399,-122 1506.0601,-122 1506.0601,-86 1611.9399,-86 1611.9399,-122"/>
<text text-anchor="middle" x="1559" y="-99.8" font-family="Times,serif" font-size="14.00" fill="#000000">AppComponent</text>
</g>
<!-- AppModule -->
<g id="node7" class="node">
<title>AppModule</title>
<polygon fill="#8dd3c7" stroke="#000000" points="822.6571,-187 819.6571,-191 798.6571,-191 795.6571,-187 739.3429,-187 739.3429,-151 822.6571,-151 822.6571,-187"/>
<text text-anchor="middle" x="781" y="-164.8" font-family="Times,serif" font-size="14.00" fill="#000000">AppModule</text>
</g>
<!-- AppComponent&#45;&gt;AppModule -->
<g id="edge1" class="edge">
<title>AppComponent&#45;&gt;AppModule</title>
<path fill="none" stroke="#000000" d="M1559,-122.0109C1559,-144.4852 1559,-180 1559,-180 1559,-180 832.8287,-180 832.8287,-180"/>
<polygon fill="#000000" stroke="#000000" points="832.8287,-176.5001 822.8287,-180 832.8286,-183.5001 832.8287,-176.5001"/>
</g>
<!-- ExpanderComponent -->
<g id="node2" class="node">
<title>ExpanderComponent</title>
<polygon fill="#ffffb3" stroke="#000000" points="1488.4748,-122 1353.5252,-122 1353.5252,-86 1488.4748,-86 1488.4748,-122"/>
<text text-anchor="middle" x="1421" y="-99.8" font-family="Times,serif" font-size="14.00" fill="#000000">ExpanderComponent</text>
</g>
<!-- ExpanderComponent&#45;&gt;AppModule -->
<g id="edge2" class="edge">
<title>ExpanderComponent&#45;&gt;AppModule</title>
<path fill="none" stroke="#000000" d="M1421,-122.1289C1421,-142.5724 1421,-173 1421,-173 1421,-173 832.9922,-173 832.9922,-173"/>
<polygon fill="#000000" stroke="#000000" points="832.9922,-169.5001 822.9922,-173 832.9922,-176.5001 832.9922,-169.5001"/>
</g>
<!-- TestComponentComponent -->
<g id="node3" class="node">
<title>TestComponentComponent</title>
<polygon fill="#ffffb3" stroke="#000000" points="1335.2674,-122 1164.7326,-122 1164.7326,-86 1335.2674,-86 1335.2674,-122"/>
<text text-anchor="middle" x="1250" y="-99.8" font-family="Times,serif" font-size="14.00" fill="#000000">TestComponentComponent</text>
</g>
<!-- TestComponentComponent&#45;&gt;AppModule -->
<g id="edge3" class="edge">
<title>TestComponentComponent&#45;&gt;AppModule</title>
<path fill="none" stroke="#000000" d="M1250,-122.2667C1250,-140.5552 1250,-166 1250,-166 1250,-166 833.0334,-166 833.0334,-166"/>
<polygon fill="#000000" stroke="#000000" points="833.0334,-162.5001 823.0334,-166 833.0333,-169.5001 833.0334,-162.5001"/>
</g>
<!-- AddressDetailsComponent -->
<g id="node4" class="node">
<title>AddressDetailsComponent</title>
<polygon fill="#ffffb3" stroke="#000000" points="1146.3557,-122 979.6443,-122 979.6443,-86 1146.3557,-86 1146.3557,-122"/>
<text text-anchor="middle" x="1063" y="-99.8" font-family="Times,serif" font-size="14.00" fill="#000000">AddressDetailsComponent</text>
</g>
<!-- AddressDetailsComponent&#45;&gt;AppModule -->
<g id="edge4" class="edge">
<title>AddressDetailsComponent&#45;&gt;AppModule</title>
<path fill="none" stroke="#000000" d="M1063,-122.0091C1063,-138.0494 1063,-159 1063,-159 1063,-159 832.9137,-159 832.9137,-159"/>
<polygon fill="#000000" stroke="#000000" points="832.9138,-155.5001 822.9137,-159 832.9137,-162.5001 832.9138,-155.5001"/>
</g>
<!-- ControlMessagesComponent -->
<g id="node5" class="node">
<title>ControlMessagesComponent</title>
<polygon fill="#ffffb3" stroke="#000000" points="961.0336,-122 782.9664,-122 782.9664,-86 961.0336,-86 961.0336,-122"/>
<text text-anchor="middle" x="872" y="-99.8" font-family="Times,serif" font-size="14.00" fill="#000000">ControlMessagesComponent</text>
</g>
<!-- ControlMessagesComponent&#45;&gt;AppModule -->
<g id="edge5" class="edge">
<title>ControlMessagesComponent&#45;&gt;AppModule</title>
<path fill="none" stroke="#000000" d="M802.7809,-122.1061C802.7809,-122.1061 802.7809,-140.991 802.7809,-140.991"/>
<polygon fill="#000000" stroke="#000000" points="799.2809,-140.9909 802.7809,-150.991 806.2809,-140.991 799.2809,-140.9909"/>
</g>
<!-- AddressListComponent -->
<g id="node6" class="node">
<title>AddressListComponent</title>
<polygon fill="#ffffb3" stroke="#000000" points="764.4818,-122 615.5182,-122 615.5182,-86 764.4818,-86 764.4818,-122"/>
<text text-anchor="middle" x="690" y="-99.8" font-family="Times,serif" font-size="14.00" fill="#000000">AddressListComponent</text>
</g>
<!-- AddressListComponent&#45;&gt;AppModule -->
<g id="edge6" class="edge">
<title>AddressListComponent&#45;&gt;AppModule</title>
<path fill="none" stroke="#000000" d="M751.8313,-122.1061C751.8313,-122.1061 751.8313,-140.991 751.8313,-140.991"/>
<polygon fill="#000000" stroke="#000000" points="748.3314,-140.9909 751.8313,-150.991 755.3314,-140.991 748.3314,-140.9909"/>
</g>
<!-- AppComponent  -->
<g id="node11" class="node">
<title>AppComponent </title>
<polygon fill="#80b1d3" stroke="#000000" points="835.439,-252 726.561,-252 726.561,-216 835.439,-216 835.439,-252"/>
<text text-anchor="middle" x="781" y="-229.8" font-family="Times,serif" font-size="14.00" fill="#000000">AppComponent </text>
</g>
<!-- AppModule&#45;&gt;AppComponent  -->
<g id="edge10" class="edge">
<title>AppModule&#45;&gt;AppComponent </title>
<path fill="none" stroke="#000000" stroke-dasharray="1,5" d="M781,-187.1061C781,-187.1061 781,-205.991 781,-205.991"/>
<polygon fill="#000000" stroke="#000000" points="777.5001,-205.9909 781,-215.991 784.5001,-205.991 777.5001,-205.9909"/>
</g>
<!-- BrowserModule -->
<g id="node8" class="node">
<title>BrowserModule</title>
<polygon fill="#8dd3c7" stroke="#000000" points="592.4734,-122 589.4734,-126 568.4734,-126 565.4734,-122 485.5266,-122 485.5266,-86 592.4734,-86 592.4734,-122"/>
<text text-anchor="middle" x="539" y="-99.8" font-family="Times,serif" font-size="14.00" fill="#000000">BrowserModule</text>
</g>
<!-- BrowserModule&#45;&gt;AppModule -->
<g id="edge7" class="edge">
<title>BrowserModule&#45;&gt;AppModule</title>
<path fill="none" stroke="#000000" d="M539,-122.0091C539,-138.0494 539,-159 539,-159 539,-159 729.1231,-159 729.1231,-159"/>
<polygon fill="#000000" stroke="#000000" points="729.1231,-162.5001 739.1231,-159 729.1231,-155.5001 729.1231,-162.5001"/>
</g>
<!-- FormsModule -->
<g id="node9" class="node">
<title>FormsModule</title>
<polygon fill="#8dd3c7" stroke="#000000" points="467.8288,-122 464.8288,-126 443.8288,-126 440.8288,-122 372.1712,-122 372.1712,-86 467.8288,-86 467.8288,-122"/>
<text text-anchor="middle" x="420" y="-99.8" font-family="Times,serif" font-size="14.00" fill="#000000">FormsModule</text>
</g>
<!-- FormsModule&#45;&gt;AppModule -->
<g id="edge8" class="edge">
<title>FormsModule&#45;&gt;AppModule</title>
<path fill="none" stroke="#000000" d="M420,-122.2667C420,-140.5552 420,-166 420,-166 420,-166 729.236,-166 729.236,-166"/>
<polygon fill="#000000" stroke="#000000" points="729.2361,-169.5001 739.236,-166 729.236,-162.5001 729.2361,-169.5001"/>
</g>
<!-- ReactiveFormsModule -->
<g id="node10" class="node">
<title>ReactiveFormsModule</title>
<polygon fill="#8dd3c7" stroke="#000000" points="354.3047,-122 351.3047,-126 330.3047,-126 327.3047,-122 209.6953,-122 209.6953,-86 354.3047,-86 354.3047,-122"/>
<text text-anchor="middle" x="282" y="-99.8" font-family="Times,serif" font-size="14.00" fill="#000000">ReactiveFormsModule</text>
</g>
<!-- ReactiveFormsModule&#45;&gt;AppModule -->
<g id="edge9" class="edge">
<title>ReactiveFormsModule&#45;&gt;AppModule</title>
<path fill="none" stroke="#000000" d="M282,-122.1289C282,-142.5724 282,-173 282,-173 282,-173 729.3138,-173 729.3138,-173"/>
<polygon fill="#000000" stroke="#000000" points="729.3139,-176.5001 739.3138,-173 729.3138,-169.5001 729.3139,-176.5001"/>
</g>
<!-- ValidationService -->
<g id="node12" class="node">
<title>ValidationService</title>
<ellipse fill="#fdb462" stroke="#000000" cx="105" cy="-104" rx="80.5142" ry="18"/>
<text text-anchor="middle" x="105" y="-99.8" font-family="Times,serif" font-size="14.00" fill="#000000">ValidationService</text>
</g>
<!-- ValidationService&#45;&gt;AppModule -->
<g id="edge11" class="edge">
<title>ValidationService&#45;&gt;AppModule</title>
<path fill="none" stroke="#000000" d="M105,-122.0109C105,-144.4852 105,-180 105,-180 105,-180 729.2233,-180 729.2233,-180"/>
<polygon fill="#000000" stroke="#000000" points="729.2234,-183.5001 739.2233,-180 729.2233,-176.5001 729.2234,-183.5001"/>
</g>
</g>
</svg>
