<?xml version="1.0" encoding="UTF-8" standalone="no"?>
<!DOCTYPE svg PUBLIC "-//W3C//DTD SVG 1.1//EN"
 "http://www.w3.org/Graphics/SVG/1.1/DTD/svg11.dtd">
<!-- Generated by graphviz version 2.40.1 (20161225.0304)
 -->
<!-- Title: dependencies Pages: 1 -->
<svg width="2387pt" height="284pt"
 viewBox="0.00 0.00 2387.00 284.00" xmlns="http://www.w3.org/2000/svg" xmlns:xlink="http://www.w3.org/1999/xlink">
<g id="graph0" class="graph" transform="scale(1 1) rotate(0) translate(4 280)">
<title>dependencies</title>
<polygon fill="#ffffff" stroke="transparent" points="-4,4 -4,-280 2383,-280 2383,4 -4,4"/>
<text text-anchor="start" x="1168.5091" y="-42.4" font-family="sans-serif" font-weight="bold" font-size="14.00" fill="#000000">Legend</text>
<polygon fill="#ffffb3" stroke="transparent" points="955.5,-10 955.5,-30 975.5,-30 975.5,-10 955.5,-10"/>
<text text-anchor="start" x="979.129" y="-15.4" font-family="sans-serif" font-size="14.00" fill="#000000"> &#160;Declarations</text>
<polygon fill="#8dd3c7" stroke="transparent" points="1068.5,-10 1068.5,-30 1088.5,-30 1088.5,-10 1068.5,-10"/>
<text text-anchor="start" x="1092.2251" y="-15.4" font-family="sans-serif" font-size="14.00" fill="#000000"> &#160;Module</text>
<polygon fill="#80b1d3" stroke="transparent" points="1154.5,-10 1154.5,-30 1174.5,-30 1174.5,-10 1154.5,-10"/>
<text text-anchor="start" x="1178.2812" y="-15.4" font-family="sans-serif" font-size="14.00" fill="#000000"> &#160;Bootstrap</text>
<polygon fill="#fdb462" stroke="transparent" points="1251.5,-10 1251.5,-30 1271.5,-30 1271.5,-10 1251.5,-10"/>
<text text-anchor="start" x="1275.1732" y="-15.4" font-family="sans-serif" font-size="14.00" fill="#000000"> &#160;Providers</text>
<polygon fill="#fb8072" stroke="transparent" points="1347.5,-10 1347.5,-30 1367.5,-30 1367.5,-10 1347.5,-10"/>
<text text-anchor="start" x="1371.2258" y="-15.4" font-family="sans-serif" font-size="14.00" fill="#000000"> &#160;Exports</text>
<g id="clust1" class="cluster">
<title>cluster_AppModule</title>
<polygon fill="none" stroke="#000000" stroke-dasharray="1,5" points="8,-70 8,-268 2371,-268 2371,-70 8,-70"/>
</g>
<g id="clust2" class="cluster">
<title>cluster_AppModule_declarations</title>
<polygon fill="none" stroke="#000000" points="2061,-78 2061,-130 2363,-130 2363,-78 2061,-78"/>
</g>
<g id="clust5" class="cluster">
<title>cluster_AppModule_imports</title>
<polygon fill="none" stroke="#000000" points="360,-78 360,-130 2053,-130 2053,-78 360,-78"/>
</g>
<g id="clust6" class="cluster">
<title>cluster_AppModule_exports</title>
<polygon fill="none" stroke="#000000" points="1159,-208 1159,-260 1291,-260 1291,-208 1159,-208"/>
</g>
<g id="clust7" class="cluster">
<title>cluster_AppModule_bootstrap</title>
<polygon fill="none" stroke="#000000" points="1299,-208 1299,-260 1423,-260 1423,-208 1299,-208"/>
</g>
<g id="clust8" class="cluster">
<title>cluster_AppModule_providers</title>
<polygon fill="none" stroke="#000000" points="16,-78 16,-130 352,-130 352,-78 16,-78"/>
</g>
<!-- AppComponent -->
<g id="node1" class="node">
<title>AppComponent</title>
<polygon fill="#ffffb3" stroke="#000000" points="2354.9399,-122 2249.0601,-122 2249.0601,-86 2354.9399,-86 2354.9399,-122"/>
<text text-anchor="middle" x="2302" y="-99.8" font-family="Times,serif" font-size="14.00" fill="#000000">AppComponent</text>
</g>
<!-- AppModule -->
<g id="node3" class="node">
<title>AppModule</title>
<polygon fill="#8dd3c7" stroke="#000000" points="1334.6571,-187 1331.6571,-191 1310.6571,-191 1307.6571,-187 1251.3429,-187 1251.3429,-151 1334.6571,-151 1334.6571,-187"/>
<text text-anchor="middle" x="1293" y="-164.8" font-family="Times,serif" font-size="14.00" fill="#000000">AppModule</text>
</g>
<!-- AppComponent&#45;&gt;AppModule -->
<g id="edge1" class="edge">
<title>AppComponent&#45;&gt;AppModule</title>
<path fill="none" stroke="#000000" d="M2302,-122.3228C2302,-145.6602 2302,-183 2302,-183 2302,-183 1344.7524,-183 1344.7524,-183"/>
<polygon fill="#000000" stroke="#000000" points="1344.7525,-179.5001 1334.7524,-183 1344.7524,-186.5001 1344.7525,-179.5001"/>
</g>
<!-- CompanyBaseComponent -->
<g id="node2" class="node">
<title>CompanyBaseComponent</title>
<polygon fill="#ffffb3" stroke="#000000" points="2231.4846,-122 2068.5154,-122 2068.5154,-86 2231.4846,-86 2231.4846,-122"/>
<text text-anchor="middle" x="2150" y="-99.8" font-family="Times,serif" font-size="14.00" fill="#000000">CompanyBaseComponent</text>
</g>
<!-- CompanyBaseComponent&#45;&gt;AppModule -->
<g id="edge2" class="edge">
<title>CompanyBaseComponent&#45;&gt;AppModule</title>
<path fill="none" stroke="#000000" d="M2150,-122.2921C2150,-144.2057 2150,-178 2150,-178 2150,-178 1344.915,-178 1344.915,-178"/>
<polygon fill="#000000" stroke="#000000" points="1344.9151,-174.5001 1334.915,-178 1344.915,-181.5001 1344.9151,-174.5001"/>
</g>
<!-- TranslateModule  -->
<g id="node16" class="node">
<title>TranslateModule </title>
<polygon fill="#fb8072" stroke="#000000" points="1282.6327,-252 1167.3673,-252 1167.3673,-216 1282.6327,-216 1282.6327,-252"/>
<text text-anchor="middle" x="1225" y="-229.8" font-family="Times,serif" font-size="14.00" fill="#000000">TranslateModule </text>
</g>
<!-- AppModule&#45;&gt;TranslateModule  -->
<g id="edge15" class="edge">
<title>AppModule&#45;&gt;TranslateModule </title>
<path fill="none" stroke="#000000" stroke-dasharray="5,2" d="M1266.8691,-187.1061C1266.8691,-187.1061 1266.8691,-205.991 1266.8691,-205.991"/>
<polygon fill="#000000" stroke="#000000" points="1263.3691,-205.9909 1266.8691,-215.991 1270.3691,-205.991 1263.3691,-205.9909"/>
</g>
<!-- AppComponent  -->
<g id="node17" class="node">
<title>AppComponent </title>
<polygon fill="#80b1d3" stroke="#000000" points="1415.439,-252 1306.561,-252 1306.561,-216 1415.439,-216 1415.439,-252"/>
<text text-anchor="middle" x="1361" y="-229.8" font-family="Times,serif" font-size="14.00" fill="#000000">AppComponent </text>
</g>
<!-- AppModule&#45;&gt;AppComponent  -->
<g id="edge16" class="edge">
<title>AppModule&#45;&gt;AppComponent </title>
<path fill="none" stroke="#000000" stroke-dasharray="1,5" d="M1320.6793,-187.1061C1320.6793,-187.1061 1320.6793,-205.991 1320.6793,-205.991"/>
<polygon fill="#000000" stroke="#000000" points="1317.1794,-205.9909 1320.6793,-215.991 1324.1794,-205.991 1317.1794,-205.9909"/>
</g>
<!-- BrowserModule -->
<g id="node4" class="node">
<title>BrowserModule</title>
<polygon fill="#8dd3c7" stroke="#000000" points="2045.4734,-122 2042.4734,-126 2021.4734,-126 2018.4734,-122 1938.5266,-122 1938.5266,-86 2045.4734,-86 2045.4734,-122"/>
<text text-anchor="middle" x="1992" y="-99.8" font-family="Times,serif" font-size="14.00" fill="#000000">BrowserModule</text>
</g>
<!-- BrowserModule&#45;&gt;AppModule -->
<g id="edge3" class="edge">
<title>BrowserModule&#45;&gt;AppModule</title>
<path fill="none" stroke="#000000" d="M1992,-122.0267C1992,-142.7672 1992,-174 1992,-174 1992,-174 1344.8915,-174 1344.8915,-174"/>
<polygon fill="#000000" stroke="#000000" points="1344.8916,-170.5001 1334.8915,-174 1344.8915,-177.5001 1344.8916,-170.5001"/>
</g>
<!-- FormsModule -->
<g id="node5" class="node">
<title>FormsModule</title>
<polygon fill="#8dd3c7" stroke="#000000" points="1920.8288,-122 1917.8288,-126 1896.8288,-126 1893.8288,-122 1825.1712,-122 1825.1712,-86 1920.8288,-86 1920.8288,-122"/>
<text text-anchor="middle" x="1873" y="-99.8" font-family="Times,serif" font-size="14.00" fill="#000000">FormsModule</text>
</g>
<!-- FormsModule&#45;&gt;AppModule -->
<g id="edge4" class="edge">
<title>FormsModule&#45;&gt;AppModule</title>
<path fill="none" stroke="#000000" d="M1873,-122.1061C1873,-141.3391 1873,-169 1873,-169 1873,-169 1344.7122,-169 1344.7122,-169"/>
<polygon fill="#000000" stroke="#000000" points="1344.7122,-165.5001 1334.7122,-169 1344.7121,-172.5001 1344.7122,-165.5001"/>
</g>
<!-- ReactiveFormsModule -->
<g id="node6" class="node">
<title>ReactiveFormsModule</title>
<polygon fill="#8dd3c7" stroke="#000000" points="1807.3047,-122 1804.3047,-126 1783.3047,-126 1780.3047,-122 1662.6953,-122 1662.6953,-86 1807.3047,-86 1807.3047,-122"/>
<text text-anchor="middle" x="1735" y="-99.8" font-family="Times,serif" font-size="14.00" fill="#000000">ReactiveFormsModule</text>
</g>
<!-- ReactiveFormsModule&#45;&gt;AppModule -->
<g id="edge5" class="edge">
<title>ReactiveFormsModule&#45;&gt;AppModule</title>
<path fill="none" stroke="#000000" d="M1735,-122.302C1735,-140.2699 1735,-165 1735,-165 1735,-165 1344.9808,-165 1344.9808,-165"/>
<polygon fill="#000000" stroke="#000000" points="1344.9808,-161.5001 1334.9808,-165 1344.9807,-168.5001 1344.9808,-161.5001"/>
</g>
<!-- ErrorModule -->
<g id="node7" class="node">
<title>ErrorModule</title>
<polygon fill="#8dd3c7" stroke="#000000" points="1644.5842,-122 1641.5842,-126 1620.5842,-126 1617.5842,-122 1555.4158,-122 1555.4158,-86 1644.5842,-86 1644.5842,-122"/>
<text text-anchor="middle" x="1600" y="-99.8" font-family="Times,serif" font-size="14.00" fill="#000000">ErrorModule</text>
</g>
<!-- ErrorModule&#45;&gt;AppModule -->
<g id="edge6" class="edge">
<title>ErrorModule&#45;&gt;AppModule</title>
<path fill="none" stroke="#000000" d="M1600,-122.027C1600,-138.3976 1600,-160 1600,-160 1600,-160 1344.7229,-160 1344.7229,-160"/>
<polygon fill="#000000" stroke="#000000" points="1344.7229,-156.5001 1334.7229,-160 1344.7229,-163.5001 1344.7229,-156.5001"/>
</g>
<!-- MainPipeModule -->
<g id="node8" class="node">
<title>MainPipeModule</title>
<polygon fill="#8dd3c7" stroke="#000000" points="1536.9874,-122 1533.9874,-126 1512.9874,-126 1509.9874,-122 1423.0126,-122 1423.0126,-86 1536.9874,-86 1536.9874,-122"/>
<text text-anchor="middle" x="1480" y="-99.8" font-family="Times,serif" font-size="14.00" fill="#000000">MainPipeModule</text>
</g>
<!-- MainPipeModule&#45;&gt;AppModule -->
<g id="edge7" class="edge">
<title>MainPipeModule&#45;&gt;AppModule</title>
<path fill="none" stroke="#000000" d="M1480,-122.1871C1480,-137.1824 1480,-156 1480,-156 1480,-156 1344.9665,-156 1344.9665,-156"/>
<polygon fill="#000000" stroke="#000000" points="1344.9665,-152.5001 1334.9665,-156 1344.9664,-159.5001 1344.9665,-152.5001"/>
</g>
<!-- AddressModule -->
<g id="node9" class="node">
<title>AddressModule</title>
<polygon fill="#8dd3c7" stroke="#000000" points="1404.9216,-122 1401.9216,-126 1380.9216,-126 1377.9216,-122 1299.0784,-122 1299.0784,-86 1404.9216,-86 1404.9216,-122"/>
<text text-anchor="middle" x="1352" y="-99.8" font-family="Times,serif" font-size="14.00" fill="#000000">AddressModule</text>
</g>
<!-- AddressModule&#45;&gt;AppModule -->
<g id="edge8" class="edge">
<title>AddressModule&#45;&gt;AppModule</title>
<path fill="none" stroke="#000000" d="M1317.0589,-122.1061C1317.0589,-122.1061 1317.0589,-140.991 1317.0589,-140.991"/>
<polygon fill="#000000" stroke="#000000" points="1313.559,-140.9909 1317.0589,-150.991 1320.559,-140.991 1313.559,-140.9909"/>
</g>
<!-- FileIoModule -->
<g id="node10" class="node">
<title>FileIoModule</title>
<polygon fill="#8dd3c7" stroke="#000000" points="1281.4888,-122 1278.4888,-126 1257.4888,-126 1254.4888,-122 1188.5112,-122 1188.5112,-86 1281.4888,-86 1281.4888,-122"/>
<text text-anchor="middle" x="1235" y="-99.8" font-family="Times,serif" font-size="14.00" fill="#000000">FileIoModule</text>
</g>
<!-- FileIoModule&#45;&gt;AppModule -->
<g id="edge9" class="edge">
<title>FileIoModule&#45;&gt;AppModule</title>
<path fill="none" stroke="#000000" d="M1266.3331,-122.1061C1266.3331,-122.1061 1266.3331,-140.991 1266.3331,-140.991"/>
<polygon fill="#000000" stroke="#000000" points="1262.8332,-140.9909 1266.3331,-150.991 1269.8332,-140.991 1262.8332,-140.9909"/>
</g>
<!-- HttpClientModule -->
<g id="node11" class="node">
<title>HttpClientModule</title>
<polygon fill="#8dd3c7" stroke="#000000" points="1170.1611,-122 1167.1611,-126 1146.1611,-126 1143.1611,-122 1051.8389,-122 1051.8389,-86 1170.1611,-86 1170.1611,-122"/>
<text text-anchor="middle" x="1111" y="-99.8" font-family="Times,serif" font-size="14.00" fill="#000000">HttpClientModule</text>
</g>
<!-- HttpClientModule&#45;&gt;AppModule -->
<g id="edge10" class="edge">
<title>HttpClientModule&#45;&gt;AppModule</title>
<path fill="none" stroke="#000000" d="M1109.5517,-122.1871C1109.5517,-137.1824 1109.5517,-156 1109.5517,-156 1109.5517,-156 1240.9133,-156 1240.9133,-156"/>
<polygon fill="#000000" stroke="#000000" points="1240.9133,-159.5001 1250.9133,-156 1240.9132,-152.5001 1240.9133,-159.5001"/>
</g>
<!-- CommonFeatureModule -->
<g id="node12" class="node">
<title>CommonFeatureModule</title>
<polygon fill="#8dd3c7" stroke="#000000" points="1033.6456,-122 1030.6456,-126 1009.6456,-126 1006.6456,-122 880.3544,-122 880.3544,-86 1033.6456,-86 1033.6456,-122"/>
<text text-anchor="middle" x="957" y="-99.8" font-family="Times,serif" font-size="14.00" fill="#000000">CommonFeatureModule</text>
</g>
<!-- CommonFeatureModule&#45;&gt;AppModule -->
<g id="edge11" class="edge">
<title>CommonFeatureModule&#45;&gt;AppModule</title>
<path fill="none" stroke="#000000" d="M957,-122.027C957,-138.3976 957,-160 957,-160 957,-160 1241.1247,-160 1241.1247,-160"/>
<polygon fill="#000000" stroke="#000000" points="1241.1248,-163.5001 1251.1247,-160 1241.1247,-156.5001 1241.1248,-163.5001"/>
</g>
<!-- TherapeuticModule -->
<g id="node13" class="node">
<title>TherapeuticModule</title>
<polygon fill="#8dd3c7" stroke="#000000" points="862.4032,-122 859.4032,-126 838.4032,-126 835.4032,-122 735.5968,-122 735.5968,-86 862.4032,-86 862.4032,-122"/>
<text text-anchor="middle" x="799" y="-99.8" font-family="Times,serif" font-size="14.00" fill="#000000">TherapeuticModule</text>
</g>
<!-- TherapeuticModule&#45;&gt;AppModule -->
<g id="edge12" class="edge">
<title>TherapeuticModule&#45;&gt;AppModule</title>
<path fill="none" stroke="#000000" d="M799,-122.302C799,-140.2699 799,-165 799,-165 799,-165 1241.3076,-165 1241.3076,-165"/>
<polygon fill="#000000" stroke="#000000" points="1241.3076,-168.5001 1251.3076,-165 1241.3076,-161.5001 1241.3076,-168.5001"/>
</g>
<!-- TranslateModule.forRoot(args) -->
<g id="node14" class="node">
<title>TranslateModule.forRoot(args)</title>
<polygon fill="#8dd3c7" stroke="#000000" points="717.8223,-122 714.8223,-126 693.8223,-126 690.8223,-122 526.1777,-122 526.1777,-86 717.8223,-86 717.8223,-122"/>
<text text-anchor="middle" x="622" y="-99.8" font-family="Times,serif" font-size="14.00" fill="#000000">TranslateModule.forRoot(args)</text>
</g>
<!-- TranslateModule.forRoot(args)&#45;&gt;AppModule -->
<g id="edge13" class="edge">
<title>TranslateModule.forRoot(args)&#45;&gt;AppModule</title>
<path fill="none" stroke="#000000" d="M622,-122.1061C622,-141.3391 622,-169 622,-169 622,-169 1241.2795,-169 1241.2795,-169"/>
<polygon fill="#000000" stroke="#000000" points="1241.2795,-172.5001 1251.2795,-169 1241.2794,-165.5001 1241.2795,-172.5001"/>
</g>
<!-- NgbModule.forRoot() -->
<g id="node15" class="node">
<title>NgbModule.forRoot()</title>
<polygon fill="#8dd3c7" stroke="#000000" points="508.026,-122 505.026,-126 484.026,-126 481.026,-122 367.974,-122 367.974,-86 508.026,-86 508.026,-122"/>
<text text-anchor="middle" x="438" y="-99.8" font-family="Times,serif" font-size="14.00" fill="#000000">NgbModule.forRoot()</text>
</g>
<!-- NgbModule.forRoot()&#45;&gt;AppModule -->
<g id="edge14" class="edge">
<title>NgbModule.forRoot()&#45;&gt;AppModule</title>
<path fill="none" stroke="#000000" d="M438,-122.0267C438,-142.7672 438,-174 438,-174 438,-174 1241.1828,-174 1241.1828,-174"/>
<polygon fill="#000000" stroke="#000000" points="1241.1828,-177.5001 1251.1828,-174 1241.1828,-170.5001 1241.1828,-177.5001"/>
</g>
<!-- ValidationService -->
<g id="node18" class="node">
<title>ValidationService</title>
<ellipse fill="#fdb462" stroke="#000000" cx="263" cy="-104" rx="80.5142" ry="18"/>
<text text-anchor="middle" x="263" y="-99.8" font-family="Times,serif" font-size="14.00" fill="#000000">ValidationService</text>
</g>
<!-- ValidationService&#45;&gt;AppModule -->
<g id="edge17" class="edge">
<title>ValidationService&#45;&gt;AppModule</title>
<path fill="none" stroke="#000000" d="M263,-122.2921C263,-144.2057 263,-178 263,-178 263,-178 1241.0254,-178 1241.0254,-178"/>
<polygon fill="#000000" stroke="#000000" points="1241.0254,-181.5001 1251.0254,-178 1241.0253,-174.5001 1241.0254,-181.5001"/>
</g>
<!-- GlobalsService -->
<g id="node19" class="node">
<title>GlobalsService</title>
<ellipse fill="#fdb462" stroke="#000000" cx="94" cy="-104" rx="70.0596" ry="18"/>
<text text-anchor="middle" x="94" y="-99.8" font-family="Times,serif" font-size="14.00" fill="#000000">GlobalsService</text>
</g>
<!-- GlobalsService&#45;&gt;AppModule -->
<g id="edge18" class="edge">
<title>GlobalsService&#45;&gt;AppModule</title>
<path fill="none" stroke="#000000" d="M94,-122.3228C94,-145.6602 94,-183 94,-183 94,-183 1241.03,-183 1241.03,-183"/>
<polygon fill="#000000" stroke="#000000" points="1241.03,-186.5001 1251.03,-183 1241.03,-179.5001 1241.03,-186.5001"/>
</g>
</g>
</svg>
